<svg id="Capa_1" enable-background="new 0 0 512 512" height="512" viewBox="0 0 512 512" width="512" xmlns="http://www.w3.org/2000/svg"><g><g><path d="m244.573 294.5h-30v-197.845c0-49.16 39.332-89.155 87.677-89.155 48.346 0 87.678 39.995 87.678 89.155v9.345c0 8.284-6.716 15-15 15-8.284 0-15-6.716-15-15v-9.345c0-32.618-25.874-59.155-57.678-59.155-31.803 0-57.677 26.537-57.677 59.155z" fill="#6c7a88"/></g><circle cx="229.573" cy="474.5" fill="#ff983b" r="30"/><path d="m156.897 353.731c0-.025-.001-.051-.001-.076 0-40.955 32.539-74.155 72.677-74.155s72.677 33.2 72.677 74.155c.231 29.737 9.547 58.36 30.127 84.918 11.261 14.532.979 35.927-17.177 35.927h-171.254c-18.156 0-28.438-21.396-17.176-35.927 20.572-26.547 29.88-55.149 30.127-84.842z" fill="#ffcf5d"/><path d="m332.378 438.573c-20.581-26.559-29.896-55.181-30.127-84.918 0-40.955-32.539-74.155-72.677-74.155-5.141 0-10.154.552-14.993 1.588 32.944 7.051 57.684 36.857 57.684 72.567.2 25.658 7.162 50.486 22.288 73.875.07.109.14.217.21.324 4.66 7.172-.477 16.647-9.029 16.647h-162.277c-5.148 13.785 4.683 30 20.489 30h171.256c18.155-.001 28.437-21.396 17.176-35.928z" fill="#ffb545"/><path d="m302.253 0c-52.6.04-95.18 43.373-95.18 96.66v178.627c-33.758 10.054-57.677 42.058-57.677 78.368v.089c-.258 29.124-9.866 56.118-28.556 80.234-15.023 19.387-1.327 48.022 23.105 48.022h48.883c3.484 17.096 18.635 30 36.745 30s33.261-12.904 36.745-30h48.883c24.344 0 38.204-28.536 23.105-48.021-18.723-24.159-28.33-51.204-28.556-80.324 0-38.404-26.751-72.006-63.606-79.898-.007-.001-.014-.002-.021-.004-.04-.008-.081-.015-.121-.023-7.842-1.665-15.943-2.105-23.929-1.35v-175.72c0-44.771 35.673-81.66 80.18-81.66 44.486 0 80.17 36.869 80.17 81.66v9.34c0 4.13-3.37 7.49-7.5 7.5-4.12-.01-7.49-3.37-7.5-7.5v-9.34c.04-36.64-29.13-66.66-65.16-66.66h-.029c-35.846 0-65.16 29.8-65.16 66.66v154.43c0 4.14 3.359 7.5 7.5 7.5 4.14 0 7.5-3.36 7.5-7.5v-154.43c0-28.62 22.615-51.66 50.18-51.66 27.609 0 50.17 23.095 50.17 51.66v9.34c.01 6.01 2.351 11.66 6.59 15.91 4.25 4.25 9.9 6.59 15.91 6.59 6.021 0 11.67-2.34 15.91-6.59 4.25-4.25 6.59-9.9 6.59-15.91v-9.34c-.001-53.381-42.661-96.62-95.171-96.66zm-72.68 497c-9.778 0-18.114-6.271-21.21-15h42.42c-3.096 8.729-11.432 15-21.21 15zm13.43-208.576c29.984 6.42 51.748 33.854 51.748 65.289.252 32.541 10.917 62.637 31.698 89.455 7.488 9.662.655 23.833-11.248 23.833h-171.256c-8.823 0-14.466-7.614-14.379-15h168.168c4.143 0 7.5-3.358 7.5-7.5s-3.357-7.5-7.5-7.5h-160.485c17.766-25.212 26.898-53.17 27.148-83.269 0-.03 0-.078-.001-.121.021-31.358 21.778-58.769 51.748-65.187 8.819-1.889 18.042-1.89 26.859 0z"/></g></svg>