<?xml version="1.0" encoding="UTF-8"?>
<!DOCTYPE svg PUBLIC "-//W3C//DTD SVG 1.1//EN" "http://www.w3.org/Graphics/SVG/1.1/DTD/svg11.dtd">
<!-- Creator: CorelDRAW X7 -->
<svg xmlns="http://www.w3.org/2000/svg" xml:space="preserve" width="13.2018in" height="3.86632in" version="1.1" style="shape-rendering:geometricPrecision; text-rendering:geometricPrecision; image-rendering:optimizeQuality; fill-rule:evenodd; clip-rule:evenodd"
viewBox="0 0 11766 3446"
 xmlns:xlink="http://www.w3.org/1999/xlink">
 <defs>
  <style type="text/css">
   <![CDATA[
    .fil0 {fill:#373435;fill-opacity:0.101961}
   ]]>
  </style>
 </defs>
 <g id="Layer_x0020_1">
  <metadata id="CorelCorpID_0Corel-Layer"/>
  <g id="_321012088">
   <polygon class="fil0" points="122,1954 206,1954 206,3446 122,3446 "/>
   <polygon class="fil0" points="0,1304 84,1304 84,3446 0,3446 "/>
   <polygon class="fil0" points="236,827 319,827 319,3446 236,3446 "/>
   <polygon class="fil0" points="349,258 432,258 432,3446 349,3446 "/>
   <polygon class="fil0" points="462,2474 546,2474 546,3446 462,3446 "/>
   <polygon class="fil0" points="576,400 659,400 659,3446 576,3446 "/>
   <polygon class="fil0" points="689,369 772,369 772,3446 689,3446 "/>
   <polygon class="fil0" points="802,1236 886,1236 886,3446 802,3446 "/>
   <polygon class="fil0" points="916,1137 999,1137 999,3446 916,3446 "/>
   <polygon class="fil0" points="1029,1124 1112,1124 1112,3446 1029,3446 "/>
   <polygon class="fil0" points="1142,2536 1226,2536 1226,3446 1142,3446 "/>
   <polygon class="fil0" points="1256,2300 1339,2300 1339,3446 1256,3446 "/>
   <polygon class="fil0" points="1369,0 1452,0 1452,3446 1369,3446 "/>
   <polygon class="fil0" points="1482,1743 1566,1743 1566,3446 1482,3446 "/>
   <polygon class="fil0" points="1596,1572 1679,1572 1679,3446 1596,3446 "/>
   <polygon class="fil0" points="1709,928 1792,928 1792,3446 1709,3446 "/>
   <polygon class="fil0" points="1822,640 1906,640 1906,3446 1822,3446 "/>
   <polygon class="fil0" points="1936,1773 2019,1773 2019,3446 1936,3446 "/>
   <polygon class="fil0" points="2049,1061 2132,1061 2132,3446 2049,3446 "/>
   <polygon class="fil0" points="2162,1304 2246,1304 2246,3446 2162,3446 "/>
   <polygon class="fil0" points="2276,321 2359,321 2359,3446 2276,3446 "/>
   <polygon class="fil0" points="2389,674 2473,674 2473,3446 2389,3446 "/>
   <polygon class="fil0" points="2502,160 2586,160 2586,3446 2502,3446 "/>
   <polygon class="fil0" points="2616,2067 2699,2067 2699,3446 2616,3446 "/>
   <polygon class="fil0" points="2729,1702 2813,1702 2813,3446 2729,3446 "/>
   <polygon class="fil0" points="2842,55 2926,55 2926,3446 2842,3446 "/>
   <polygon class="fil0" points="2956,1534 3039,1534 3039,3446 2956,3446 "/>
   <polygon class="fil0" points="3069,359 3153,359 3153,3446 3069,3446 "/>
   <polygon class="fil0" points="3182,1429 3266,1429 3266,3446 3182,3446 "/>
   <polygon class="fil0" points="3296,1304 3379,1304 3379,3446 3296,3446 "/>
   <polygon class="fil0" points="3409,80 3493,80 3493,3446 3409,3446 "/>
   <polygon class="fil0" points="3522,934 3606,934 3606,3446 3522,3446 "/>
   <polygon class="fil0" points="3636,284 3719,284 3719,3446 3636,3446 "/>
   <polygon class="fil0" points="3749,2039 3833,2039 3833,3446 3749,3446 "/>
   <polygon class="fil0" points="3862,1881 3946,1881 3946,3446 3862,3446 "/>
   <polygon class="fil0" points="3976,2519 4059,2519 4059,3446 3976,3446 "/>
   <polygon class="fil0" points="4089,1304 4173,1304 4173,3446 4089,3446 "/>
   <polygon class="fil0" points="4202,1881 4286,1881 4286,3446 4202,3446 "/>
   <polygon class="fil0" points="4316,2519 4399,2519 4399,3446 4316,3446 "/>
   <polygon class="fil0" points="4429,1304 4513,1304 4513,3446 4429,3446 "/>
   <polygon class="fil0" points="4542,2039 4626,2039 4626,3446 4542,3446 "/>
   <polygon class="fil0" points="4656,1304 4739,1304 4739,3446 4656,3446 "/>
   <polygon class="fil0" points="4769,1304 4853,1304 4853,3446 4769,3446 "/>
   <polygon class="fil0" points="4882,130 4966,130 4966,3446 4882,3446 "/>
   <polygon class="fil0" points="4996,2221 5079,2221 5079,3446 4996,3446 "/>
   <polygon class="fil0" points="5109,2506 5193,2506 5193,3446 5109,3446 "/>
   <polygon class="fil0" points="5222,1304 5306,1304 5306,3446 5222,3446 "/>
   <polygon class="fil0" points="5336,2506 5419,2506 5419,3446 5336,3446 "/>
   <polygon class="fil0" points="5449,2221 5533,2221 5533,3446 5449,3446 "/>
   <polygon class="fil0" points="5562,130 5646,130 5646,3446 5562,3446 "/>
   <polygon class="fil0" points="5676,1304 5759,1304 5759,3446 5676,3446 "/>
   <polygon class="fil0" points="5789,2506 5873,2506 5873,3446 5789,3446 "/>
   <polygon class="fil0" points="5902,2221 5986,2221 5986,3446 5902,3446 "/>
   <polygon class="fil0" points="6016,1304 6099,1304 6099,3446 6016,3446 "/>
   <polygon class="fil0" points="6129,130 6213,130 6213,3446 6129,3446 "/>
   <polygon class="fil0" points="6242,1304 6326,1304 6326,3446 6242,3446 "/>
   <polygon class="fil0" points="6356,130 6439,130 6439,3446 6356,3446 "/>
   <polygon class="fil0" points="6469,130 6553,130 6553,3446 6469,3446 "/>
   <polygon class="fil0" points="6582,2506 6666,2506 6666,3446 6582,3446 "/>
   <polygon class="fil0" points="6696,2221 6779,2221 6779,3446 6696,3446 "/>
   <polygon class="fil0" points="6809,130 6893,130 6893,3446 6809,3446 "/>
   <polygon class="fil0" points="6922,2221 7006,2221 7006,3446 6922,3446 "/>
   <polygon class="fil0" points="7036,1304 7119,1304 7119,3446 7036,3446 "/>
   <polygon class="fil0" points="7149,2506 7233,2506 7233,3446 7149,3446 "/>
   <polygon class="fil0" points="7262,2221 7346,2221 7346,3446 7262,3446 "/>
   <polygon class="fil0" points="7376,1304 7459,1304 7459,3446 7376,3446 "/>
   <polygon class="fil0" points="7489,2506 7573,2506 7573,3446 7489,3446 "/>
   <polygon class="fil0" points="7602,1304 7686,1304 7686,3446 7602,3446 "/>
   <polygon class="fil0" points="7716,130 7799,130 7799,3446 7716,3446 "/>
   <polygon class="fil0" points="7829,1304 7913,1304 7913,3446 7829,3446 "/>
   <polygon class="fil0" points="7942,2221 8026,2221 8026,3446 7942,3446 "/>
   <polygon class="fil0" points="8056,2506 8139,2506 8139,3446 8056,3446 "/>
   <polygon class="fil0" points="8169,1304 8253,1304 8253,3446 8169,3446 "/>
   <polygon class="fil0" points="8282,2506 8366,2506 8366,3446 8282,3446 "/>
   <polygon class="fil0" points="8396,68 8479,68 8479,3446 8396,3446 "/>
   <polygon class="fil0" points="8509,136 8593,136 8593,3446 8509,3446 "/>
   <polygon class="fil0" points="8622,2506 8706,2506 8706,3446 8622,3446 "/>
   <polygon class="fil0" points="8736,1304 8819,1304 8819,3446 8736,3446 "/>
   <polygon class="fil0" points="8849,1304 8933,1304 8933,3446 8849,3446 "/>
   <polygon class="fil0" points="8962,1304 9046,1304 9046,3446 8962,3446 "/>
   <polygon class="fil0" points="9076,835 9159,835 9159,3446 9076,3446 "/>
   <polygon class="fil0" points="9189,1304 9273,1304 9273,3446 9189,3446 "/>
   <polygon class="fil0" points="9302,1304 9386,1304 9386,3446 9302,3446 "/>
   <polygon class="fil0" points="9416,755 9499,755 9499,3446 9416,3446 "/>
   <polygon class="fil0" points="9529,1304 9613,1304 9613,3446 9529,3446 "/>
   <polygon class="fil0" points="9642,130 9726,130 9726,3446 9642,3446 "/>
   <polygon class="fil0" points="9756,1918 9839,1918 9839,3446 9756,3446 "/>
   <polygon class="fil0" points="9869,1661 9953,1661 9953,3446 9869,3446 "/>
   <polygon class="fil0" points="9982,2212 10066,2212 10066,3446 9982,3446 "/>
   <polygon class="fil0" points="10096,130 10179,130 10179,3446 10096,3446 "/>
   <polygon class="fil0" points="10209,130 10293,130 10293,3446 10209,3446 "/>
   <polygon class="fil0" points="10322,1389 10406,1389 10406,3446 10322,3446 "/>
   <polygon class="fil0" points="10436,1160 10519,1160 10519,3446 10436,3446 "/>
   <polygon class="fil0" points="10549,1073 10633,1073 10633,3446 10549,3446 "/>
   <polygon class="fil0" points="10662,2503 10746,2503 10746,3446 10662,3446 "/>
   <polygon class="fil0" points="10776,1928 10859,1928 10859,3446 10776,3446 "/>
   <polygon class="fil0" points="10889,130 10973,130 10973,3446 10889,3446 "/>
   <polygon class="fil0" points="11002,1197 11086,1197 11086,3446 11002,3446 "/>
   <polygon class="fil0" points="11116,2410 11199,2410 11199,3446 11116,3446 "/>
   <polygon class="fil0" points="11229,1414 11313,1414 11313,3446 11229,3446 "/>
   <polygon class="fil0" points="11342,61 11426,61 11426,3446 11342,3446 "/>
   <polygon class="fil0" points="11456,130 11539,130 11539,3446 11456,3446 "/>
   <polygon class="fil0" points="11569,1304 11653,1304 11653,3446 11569,3446 "/>
   <polygon class="fil0" points="11682,1304 11766,1304 11766,3446 11682,3446 "/>
  </g>
 </g>
</svg>
