<svg height="512" viewBox="0 0 128 128" width="512" xmlns="http://www.w3.org/2000/svg"><g id="icon"><path d="m105.327 126.1c2.112-21.144.149-43.171-3.328-63.267a8.976 8.976 0 0 0 -7.915-7.365 274.229 274.229 0 0 0 -59.6 0 8.976 8.976 0 0 0 -7.915 7.365c-3.477 20.1-5.44 42.123-3.328 63.267z" fill="#43567c"/><path d="m88.331 34.861c-1.3-.194-2.594 1.091-3.157 4.461s-.181 7.548 1.119 7.742 3.024-3.67 3.587-7.04-.249-4.969-1.549-5.163z" fill="#e8c79c"/><path d="m39.669 34.861c1.3-.194 2.594 1.091 3.157 4.461s.181 7.548-1.119 7.742-3.024-3.67-3.587-7.04.249-4.969 1.549-5.163z" fill="#e8c79c"/><path d="m85.572 76.476c-10.572-4.41-7.248-18.071-7.248-18.071h-28.648s3.329 13.661-7.248 18.071c-17.6 7.339-28.3 3.255-28.3 33.341v18.183h99.754v-18.183c-.005-30.086-10.709-26.002-28.31-33.341z" fill="#f0c191"/><path d="m113.874 109.817v18.183h-99.749v-18.183c0-30.079 10.7-26 28.3-33.337a5.8 5.8 0 0 0 .789-.378 22.809 22.809 0 0 0 41.565 0 5.816 5.816 0 0 0 .79.378c17.609 7.339 28.305 3.258 28.305 33.337z" fill="#4fa4d1"/><path d="m113.874 109.817v18.183h-99.749v-18.183c0-30.079 10.7-26 28.3-33.337a5.8 5.8 0 0 0 .789-.378 22.809 22.809 0 0 0 41.565 0 5.816 5.816 0 0 0 .79.378c17.609 7.339 28.305 3.258 28.305 33.337z" fill="#4fa4d1"/><g opacity=".5"><path d="m113.874 109.817v18.183h-11.14v-18.183c0-24.912-7.339-26.393-19.861-30.326a20.767 20.767 0 0 0 1.909-3.391 5.816 5.816 0 0 0 .79.378c17.606 7.341 28.302 3.26 28.302 33.339z" fill="#477ea8"/></g><ellipse cx="64" cy="41.357" fill="#f3cda7" rx="22.915" ry="29.461"/><path d="m85.246 20.734c-2.637-7.642-6.68 2.492-6.68 2.492a29.587 29.587 0 0 1 5.871 18.627 1.252 1.252 0 0 0 1.24 1.31 1.237 1.237 0 0 0 1.243-1.175c.18-3.648.514-14.911-1.674-21.254z" fill="#43567c"/><path d="m42.89 20.734c-2.19 6.343-1.852 17.606-1.674 21.254a1.238 1.238 0 0 0 1.244 1.175 1.253 1.253 0 0 0 1.24-1.31 29.583 29.583 0 0 1 5.87-18.627s-4.043-10.134-6.68-2.492z" fill="#43567c"/><path d="m84.472 3.729a4.205 4.205 0 0 0 -3.879-3.729h-33.186a4.205 4.205 0 0 0 -3.879 3.729l-3.9 21.29h48.746z" fill="#967169"/><path d="m93.762 31.229-5.388-6.21h-48.748l-5.388 6.21c-.812.936-.258 2.577.871 2.577h57.782c1.129 0 1.683-1.641.871-2.577z" fill="#a67f74"/><g fill="#43567c"><path d="m90.061 76.163s-12.145 14.412-12.334 51.7h7.381s-2.008-36.963 11.205-49.68z"/><path d="m37.854 76.4s12.146 14.175 12.335 51.46h-7.382s2.006-36.72-11.2-49.438z"/></g></g></svg>