<svg height="512" viewBox="0 0 128 128" width="512" xmlns="http://www.w3.org/2000/svg"><g id="icon"><rect fill="#384868" height="21.376" rx="2.431" width="14.308" x="94.119" y="106.624"/><rect fill="#384868" height="21.376" rx="2.431" width="14.308" x="19.573" y="106.624"/><g fill="#43567c"><path d="m117.744 21.054v18.324h2.756v-18.324a5.531 5.531 0 0 0 -5.525-5.525h-8.087v2.759h8.087a2.769 2.769 0 0 1 2.769 2.766z"/><rect height="19.642" rx="1.359" width="10.912" x="113.949" y="25.262"/><path d="m10.256 21.054v18.324h-2.756v-18.324a5.531 5.531 0 0 1 5.525-5.525h8.087v2.759h-8.09a2.769 2.769 0 0 0 -2.766 2.766z"/><rect height="19.642" rx="1.359" width="10.912" x="3.139" y="25.262"/></g><path d="m106.208 7.925c-4.039-6.867-41.351-7.925-41.351-7.925s-.306 0-.857.014c-.551-.014-.857-.014-.857-.014s-37.312 1.058-41.351 7.925c-3.091 5.256-5.86 36.566-4.985 55.869l.037 48.6a4.837 4.837 0 0 0 4.774 4.916h84.764a4.837 4.837 0 0 0 4.774-4.916l.037-48.6c.875-19.303-1.893-50.613-4.985-55.869z" fill="#dbe2eb"/><path d="m16.826 84.278.018 28.118a4.837 4.837 0 0 0 4.774 4.916h84.764a4.837 4.837 0 0 0 4.774-4.916l.018-28.118z" fill="#4fa4d1"/><path d="m105.68 63.54-.01.13a.982.982 0 0 1 -.98.98h-81.38a.975.975 0 0 1 -.98-.98l-.01-.13c-.89-19.6 2-47.66 4.13-52.59 3.22-2.44 20.12-4.95 36.74-5.43.12 0 .81.01.81.01s.69-.01.81-.01l1.95.06c1.82.08 3.64.17 5.43.29 1.6.09 3.18.21 4.73.34l2.66.24c10.83 1.06 19.74 2.8 21.98 4.5 2.11 4.83 5.01 32.96 4.12 52.59z" fill="#43567c"/><path d="m105.835 53.624h-83.67s-.036 5.65.158 9.92v.131a.979.979 0 0 0 .979.973h81.391a.979.979 0 0 0 .979-.98l.007-.124c.193-4.244.156-9.92.156-9.92z" fill="#384868"/><path d="m50.157 106.086h27.686a1.223 1.223 0 0 1 1.223 1.223v4.713a1.224 1.224 0 0 1 -1.224 1.224h-27.685a1.223 1.223 0 0 1 -1.223-1.223v-4.713a1.224 1.224 0 0 1 1.223-1.224z" fill="#f6ba5b"/><path d="m49.157 88.251h29.686v4.606h-29.686z" fill="#43567c"/><path d="m49.157 96.189h29.686v4.606h-29.686z" fill="#43567c"/><rect fill="#dbe2eb" height="11.27" rx="1.407" width="20.861" x="85.329" y="88.251"/><circle cx="91.314" cy="93.886" fill="#f6ba5b" r="3.526"/><circle cx="100.206" cy="93.886" fill="#ef5361" r="3.526"/><rect fill="#dbe2eb" height="11.27" rx="1.407" width="20.861" x="21.809" y="88.251"/><circle cx="36.686" cy="93.886" fill="#f6ba5b" r="3.526"/><circle cx="27.794" cy="93.886" fill="#ef5361" r="3.526"/><g fill="#fff" opacity=".12"><path d="m72.19 5.87-30.86 58.78h-5.57l31-59.07c1.82.08 3.64.17 5.43.29z"/><path d="m79.58 6.45-30.54 58.2h-2.79l30.67-58.44z"/></g></g></svg>