<svg height="512" viewBox="0 0 128 128" width="512" xmlns="http://www.w3.org/2000/svg"><g id="icon"><rect fill="#dbe2eb" height="5.158" rx="1.278" width="67.347" x="23.813" y="36.579"/><path d="m128 72.442v6.422a4.508 4.508 0 0 1 -3.945 4.469l-5.842.722a4.309 4.309 0 0 1 -.556.032h-102.012a4.545 4.545 0 0 1 -1.08-.135l-11.144-2.752a4.492 4.492 0 0 1 -3.421-4.368v-28.393a4.5 4.5 0 0 1 2.635-4.095l10.152-4.612a4.463 4.463 0 0 1 1.866-.405h85.375a4.5 4.5 0 0 1 1.651.31l10.922 4.31c12.1 4.969 15.026 25.233 15.367 27.932a4.513 4.513 0 0 1 .032.563z" fill="#ef5361"/><path d="m100.909 59.231-6.832-12.131a1.662 1.662 0 0 0 -1.447-.846h-79.239a1.661 1.661 0 0 0 -1.559 2.234l4.462 12.133a1.662 1.662 0 0 0 1.559 1.088h81.609a1.661 1.661 0 0 0 1.447-2.478z" fill="#384868"/><path d="m117.5 81.451a8.76 8.76 0 0 1 -.405 2.636h-16.543a8.678 8.678 0 1 1 16.948-2.636z" fill="#2f3a5a"/><path d="m108.819 74.235a7.219 7.219 0 1 0 7.219 7.219 7.219 7.219 0 0 0 -7.219-7.219z" fill="#43567c"/><path d="m108.819 77.861a3.593 3.593 0 1 0 3.593 3.593 3.593 3.593 0 0 0 -3.593-3.593z" fill="#dbe2eb"/><path d="m35.076 81.451a8.76 8.76 0 0 1 -.405 2.636h-16.542a8.678 8.678 0 1 1 16.947-2.636z" fill="#2f3a5a"/><path d="m26.4 74.235a7.219 7.219 0 1 0 7.219 7.219 7.219 7.219 0 0 0 -7.219-7.219z" fill="#43567c"/><path d="m26.4 77.861a3.593 3.593 0 1 0 3.593 3.593 3.593 3.593 0 0 0 -3.593-3.593z" fill="#dbe2eb"/><path d="m96.417 84.087h-2v-9.96h-50.952v9.96h-2v-10.96a1 1 0 0 1 1-1h52.952a1 1 0 0 1 1 1z" fill="#da2a47"/><path d="m58.518 73.127h2v10.96h-2z" fill="#da2a47"/><path d="m77.364 73.127h2v10.96h-2z" fill="#da2a47"/><path d="m0 66.23h116.038v2h-116.038z" fill="#da2a47"/><path d="m112.6 43.947-6.283 3.925a2.833 2.833 0 0 0 -1 3.734l9.943 18.686a2.833 2.833 0 0 0 2.253 1.491l10.487.917v-.52s-2.429-22.907-15.4-28.233z" fill="#384868"/><g fill="#2f3a5a"><path d="m128 72.18v.52l-10.485-.92a2.846 2.846 0 0 1 -2.255-1.493l-6.723-12.636q.786.82 1.691 1.595c5.509 4.683 12.192 6.072 15.8 3.524a59.781 59.781 0 0 1 1.972 9.41z"/><path d="m81.701 46.252h2v15.455h-2z"/><path d="m64.185 46.252h2v15.455h-2z"/><path d="m46.669 46.252h2v15.455h-2z"/><path d="m29.153 46.252h2v15.455h-2z"/></g><path d="m113.375 61.6a.5.5 0 0 1 -.5-.5v-5.09a2.7 2.7 0 0 0 -2.694-2.693h-6.187a.5.5 0 0 1 0-1h6.187a3.7 3.7 0 0 1 3.694 3.693v5.09a.5.5 0 0 1 -.5.5z" fill="#dbe2eb"/><rect fill="#84879c" height="6.84" rx=".837" width="3.445" x="111.594" y="56.668"/><path d="m114.2 64.008h-1.771a1.338 1.338 0 0 1 -1.337-1.336v-5.167a1.339 1.339 0 0 1 1.337-1.337h1.771a1.339 1.339 0 0 1 1.337 1.337v5.167a1.338 1.338 0 0 1 -1.337 1.336zm-1.771-6.84a.337.337 0 0 0 -.337.337v5.167a.337.337 0 0 0 .337.336h1.771a.337.337 0 0 0 .337-.336v-5.167a.337.337 0 0 0 -.337-.337z" fill="#84879c"/></g></svg>