<svg height="512" viewBox="0 0 128 128" width="512" xmlns="http://www.w3.org/2000/svg"><g id="icon"><path d="m64.023 35.891h4.452v76.387h-4.452z" fill="#a67f74"/><path d="m65.717 1.745a51.01 51.01 0 0 0 -49.66 39.4h99.32a51.01 51.01 0 0 0 -49.66-39.4z" fill="#dbe2eb"/><path d="m55.283 37.848c4.495 0 9.014.124 13.506-.056 3.317-.132 6.4-.4 9.455 1.1 1.052.516 2.6 1.384 2.543 2.253h19.428c-3.649-22.576-17.7-39.4-34.5-39.4s-30.849 16.827-34.5 39.4h20.496c.416-1.504 1.57-3.297 3.572-3.297z" fill="#ef5361"/><path d="m66.249 1.745c-7.077 0-13 16.827-14.538 39.4h29.076c-1.538-22.573-7.461-39.4-14.538-39.4z" fill="#dbe2eb"/><path d="m126.95 108.37-4.96 3.02-1.07.65a1.235 1.235 0 0 1 -1.69-.42l-13.54-22.25a1.251 1.251 0 0 0 -1.05-.59h-70.07a1.222 1.222 0 0 0 -1.03.57l-15.6 24.33a1.225 1.225 0 0 1 -1.69.37l-1.29-.82-4.67-2.96a1.224 1.224 0 0 1 -.38-1.7l15.02-23.44a1.233 1.233 0 0 0 -.11-1.48l-24-26.9a1.234 1.234 0 0 1 .1-1.74l5.27-4.69a1.221 1.221 0 0 1 1.73.09l25.37 28.44a1.225 1.225 0 0 0 .92.42h75.77a1.216 1.216 0 0 1 1.05.59l16.33 26.82a1.234 1.234 0 0 1 -.41 1.69z" fill="#f0c191"/><path d="m106.85 86.06h-74.26l-17.63 27.17 1.29.82a1.225 1.225 0 0 0 1.69-.37l15.6-24.33a1.222 1.222 0 0 1 1.03-.57h70.07a1.251 1.251 0 0 1 1.05.59l13.54 22.25a1.235 1.235 0 0 0 1.69.42l1.07-.65z" fill="#ddb087"/><rect fill="#f0c191" height="5.502" rx=".905" width="44.372" x="14.96" y="64.931"/><path d="m46.607 67.682h5.686v16.049h-5.686z" fill="#f0c191"/><path d="m51.711 41.148v3.074a3.279 3.279 0 0 0 3.279 3.278h22.518a3.279 3.279 0 0 0 3.279-3.279v-3.073z" fill="#c1cdd3"/><path d="m80.787 41.148v3.074a3.279 3.279 0 0 0 3.279 3.278h12.87a3.279 3.279 0 0 0 3.279-3.279v-3.073z" fill="#da2a47"/><path d="m100.215 41.148v3.074a3.279 3.279 0 0 0 3.279 3.279h8.6a3.28 3.28 0 0 0 3.28-3.279v-3.074z" fill="#c1cdd3"/><path d="m51.711 41.05v3.169a3.42 3.42 0 0 1 -3.459 3.38h-13.574a3.42 3.42 0 0 1 -3.459-3.38v-3.169z" fill="#da2a47"/><path d="m31.219 41.05v3.169a3.33 3.33 0 0 1 -3.279 3.381h-8.6a3.33 3.33 0 0 1 -3.279-3.38v-3.17z" fill="#c1cdd3"/></g></svg>