<svg height="512" viewBox="0 0 128 128" width="512" xmlns="http://www.w3.org/2000/svg"><g id="icon"><path d="m124.155 26.718h-6.6a2.012 2.012 0 0 0 -2.012 2.012v11l-5.7 5.633.486 3.241 6.783-6.131a2 2 0 0 0 .447.054h6.6a2.012 2.012 0 0 0 2.012-2.012v-11.785a2.012 2.012 0 0 0 -2.016-2.012z" fill="#43567c"/><path d="m3.845 26.718h6.6a2.012 2.012 0 0 1 2.012 2.012v11l5.7 5.633-.484 3.237-6.783-6.132a2 2 0 0 1 -.447.054h-6.6a2.012 2.012 0 0 1 -2.01-2.012v-11.78a2.012 2.012 0 0 1 2.012-2.012z" fill="#43567c"/><path d="m119.141 88.75-13.508-.05a2.763 2.763 0 0 0 -2.762 2.762l.048 24.906a2.762 2.762 0 0 0 2.762 2.761h13.46a2.761 2.761 0 0 0 2.762-2.761v-24.856a2.762 2.762 0 0 0 -2.762-2.762z" fill="#2f3a5a"/><path d="m22.73 88.75-13.508-.05a2.763 2.763 0 0 0 -2.762 2.764l.048 24.906a2.762 2.762 0 0 0 2.762 2.761h13.46a2.761 2.761 0 0 0 2.762-2.761v-24.858a2.762 2.762 0 0 0 -2.762-2.762z" fill="#2f3a5a"/><path d="m109.212 15.665a5.594 5.594 0 0 0 -5.333-4.736 386.984 386.984 0 0 0 -79.758 0 5.594 5.594 0 0 0 -5.333 4.736l-6.994 45.329 6.665 32.521h91.082l6.665-32.521z" fill="#f6ba5b"/><path d="m107.9 44.02q-23.7-2.02-47.54-1.87c-.98 0-1.96.01-2.93.02-1.22.01-2.43.03-3.64.07q-2.955.045-5.91.14-13.86.435-27.76 1.64l4.24-27.49.2-.01.15.01a373.6 373.6 0 0 1 38.85-2.03h.04c1.91 0 3.84.01 5.76.05 1.19.01 2.38.04 3.57.07.95.02 1.91.05 2.86.09 9.11.28 18.33.9 27.52 1.83l.19.01.18.01z" fill="#43567c"/><path d="m110.439 54.643a7.383 7.383 0 0 0 -5.93-6.246c-12.734-2.418-40.425-2.238-40.509-2.238s-27.775-.18-40.509 2.238a7.383 7.383 0 0 0 -5.93 6.246l-1.948 14.027 10.351 24.845h76.072l10.351-24.845z" fill="#f9c87e"/><path d="m104.47 66.344c-1.146-7.764-2.967-10.869-11.437-12.939-8.453-2.066-28.955-2.322-29.033-2.318s-20.58.252-29.033 2.318c-8.467 2.07-10.291 5.175-11.437 12.939s1.088 17.377 1.088 17.377h78.764s2.234-9.614 1.088-17.377z" fill="#f6ba5b"/><path d="m122.35 61.172-9.521-1.511a3.836 3.836 0 0 0 -4.342 2.94l-1.112 4.9a3.843 3.843 0 0 0 -.095.849v21.329a3.837 3.837 0 0 0 3.837 3.836h10.631a3.837 3.837 0 0 0 3.837-3.836v-24.718a3.837 3.837 0 0 0 -3.235-3.789z" fill="#f6ba5b"/><path d="m5.65 61.172 9.521-1.511a3.836 3.836 0 0 1 4.342 2.94l1.112 4.9a3.843 3.843 0 0 1 .095.849v21.329a3.837 3.837 0 0 1 -3.837 3.836h-10.631a3.837 3.837 0 0 1 -3.837-3.836v-24.718a3.837 3.837 0 0 1 3.235-3.789z" fill="#f6ba5b"/><path d="m126.054 81.036h-124.108a1.946 1.946 0 0 0 -1.946 1.946v8.643a4.838 4.838 0 0 0 4.839 4.839h118.322a4.838 4.838 0 0 0 4.839-4.839v-8.643a1.946 1.946 0 0 0 -1.946-1.946z" fill="#43567c"/><path d="m91.352 59.314a6 6 0 1 0 6 6 6 6 0 0 0 -6-6z" fill="#dbe2eb"/><path d="m36.648 59.314a6 6 0 1 0 6 6 6 6 0 0 0 -6-6z" fill="#dbe2eb"/><path d="m115.6 85.176a3.574 3.574 0 1 0 3.574 3.574 3.574 3.574 0 0 0 -3.574-3.574z" fill="#dbe2eb"/><path d="m12.4 85.176a3.574 3.574 0 1 0 3.573 3.574 3.574 3.574 0 0 0 -3.573-3.574z" fill="#dbe2eb"/><g fill="#43567c"><path d="m50.36 59.613a1.836 1.836 0 0 0 -1.836 1.836v15.26a1.836 1.836 0 1 0 3.672 0v-15.26a1.836 1.836 0 0 0 -1.836-1.836z"/><path d="m57.18 59.613a1.836 1.836 0 0 0 -1.836 1.836v15.26a1.836 1.836 0 0 0 3.672 0v-15.26a1.836 1.836 0 0 0 -1.836-1.836z"/><path d="m64 59.613a1.836 1.836 0 0 0 -1.836 1.836v15.26a1.836 1.836 0 0 0 3.672 0v-15.26a1.836 1.836 0 0 0 -1.836-1.836z"/><path d="m70.82 59.613a1.836 1.836 0 0 0 -1.836 1.836v15.26a1.836 1.836 0 0 0 3.672 0v-15.26a1.836 1.836 0 0 0 -1.836-1.836z"/><path d="m77.64 59.613a1.836 1.836 0 0 0 -1.84 1.836v15.26a1.836 1.836 0 1 0 3.672 0v-15.26a1.836 1.836 0 0 0 -1.832-1.836z"/></g><g fill="#fff" opacity=".25"><path d="m69.36 14.55-15.57 27.69q-2.955.045-5.91.14l15.68-27.88h.04c1.91 0 3.84.01 5.76.05z"/><path d="m75.79 14.71-15.43 27.44c-.98 0-1.96.01-2.93.02l15.5-27.55c.95.02 1.91.05 2.86.09z"/></g></g></svg>