<svg height="512" viewBox="0 0 128 128" width="512" xmlns="http://www.w3.org/2000/svg"><g id="icon"><path d="m82.729 38.176a2.333 2.333 0 0 1 -2.329-2.333v-13.654a3.35 3.35 0 0 0 -3.58-3.049h-25.635a3.35 3.35 0 0 0 -3.58 3.049v13.654a2.334 2.334 0 0 1 -4.668 0v-13.654a8 8 0 0 1 8.248-7.716h25.63a8 8 0 0 1 8.248 7.716v13.654a2.333 2.333 0 0 1 -2.334 2.333z" fill="#bd8d5a"/><path d="m10.776 28.842h106.447a10.777 10.777 0 0 1 10.777 10.777v64.705a10.776 10.776 0 0 1 -10.776 10.776h-106.448a10.776 10.776 0 0 1 -10.776-10.776v-64.705a10.776 10.776 0 0 1 10.776-10.777z" fill="#bd8d5a"/><path d="m114.251 109.1h-3.978a1 1 0 0 1 0-2h3.978a1 1 0 0 1 0 2zm-7.956 0h-3.978a1 1 0 1 1 0-2h3.983a1 1 0 0 1 0 2zm-7.956 0h-3.978a1 1 0 0 1 0-2h3.978a1 1 0 0 1 0 2zm-7.956 0h-3.978a1 1 0 0 1 0-2h3.978a1 1 0 1 1 0 2zm-7.956 0h-3.978a1 1 0 1 1 0-2h3.978a1 1 0 0 1 0 2zm-7.956 0h-3.979a1 1 0 1 1 0-2h3.979a1 1 0 0 1 0 2zm-7.957 0h-3.978a1 1 0 0 1 0-2h3.978a1 1 0 0 1 0 2zm-7.956 0h-3.978a1 1 0 0 1 0-2h3.978a1 1 0 0 1 0 2zm-7.956 0h-3.978a1 1 0 1 1 0-2h3.976a1 1 0 1 1 0 2zm-7.956 0h-3.979a1 1 0 0 1 0-2h3.979a1 1 0 0 1 0 2zm-7.957 0h-3.978a1 1 0 1 1 0-2h3.978a1 1 0 0 1 0 2zm-7.956 0h-3.978a1 1 0 1 1 0-2h3.978a1 1 0 1 1 0 2zm-7.956 0h-3.977a1 1 0 0 1 0-2h3.978a1 1 0 0 1 0 2zm-7.956 0h-.045a4.791 4.791 0 0 1 -4.149-2.413 1 1 0 1 1 1.736-.993 2.786 2.786 0 0 0 2.413 1.406 1.019 1.019 0 0 1 1.023 1 .982.982 0 0 1 -.978 1zm107.4-.134a1 1 0 0 1 -.262-1.965 2.78 2.78 0 0 0 1.958-1.988 1 1 0 1 1 1.937.5 4.785 4.785 0 0 1 -3.37 3.422 1 1 0 0 1 -.267.031zm-111.221-5.666a1 1 0 0 1 -1-1v-3.979a1 1 0 0 1 2 0v3.979a1 1 0 0 1 -1 1zm114-1.006a1 1 0 0 1 -1-1v-3.98a1 1 0 0 1 2 0v3.979a1 1 0 0 1 -1 1zm-114-6.951a1 1 0 0 1 -1-1v-3.979a1 1 0 0 1 2 0v3.979a1 1 0 0 1 -1 1zm114-1.006a1 1 0 0 1 -1-1v-3.979a1 1 0 0 1 2 0v3.979a1 1 0 0 1 -1 1zm-114-6.95a1 1 0 0 1 -1-1v-3.979a1 1 0 1 1 2 0v3.979a1 1 0 0 1 -1 1zm114-1.007a1 1 0 0 1 -1-1v-3.98a1 1 0 0 1 2 0v3.98a1 1 0 0 1 -1 1zm-114-6.949a1 1 0 0 1 -1-1v-3.979a1 1 0 0 1 2 0v3.979a1 1 0 0 1 -1 1zm114-1.007a1 1 0 0 1 -1-1v-3.978a1 1 0 0 1 2 0v3.978a1 1 0 0 1 -1 1zm-114-6.949a1 1 0 0 1 -1-1v-3.975a1 1 0 0 1 2 0v3.979a1 1 0 0 1 -1 .996zm114-1.007a1 1 0 0 1 -1-1v-3.978a1 1 0 1 1 2 0v3.978a1 1 0 0 1 -1 1zm-114-6.95a1 1 0 0 1 -1-1v-3.978a1 1 0 0 1 2 0v3.978a1 1 0 0 1 -1 1zm114-1.006a1 1 0 0 1 -1-1v-3.979a1 1 0 1 1 2 0v3.979a1 1 0 0 1 -1 1zm-114-6.95a1 1 0 0 1 -1-1v-3.978a1 1 0 0 1 2 0v3.978a1 1 0 0 1 -1 1zm114-1.006a1 1 0 0 1 -1-1v-3.979a1 1 0 0 1 2 0v3.979a1 1 0 0 1 -1 1zm-114-6.951a1 1 0 0 1 -1-1v-3.978a1 1 0 1 1 2 0v3.978a1 1 0 0 1 -1 1zm114-1a1 1 0 0 1 -1-1v-3.984a1 1 0 0 1 2 0v3.979a1 1 0 0 1 -1 1zm-113.875-6.945a1.02 1.02 0 0 1 -.255-.033 1 1 0 0 1 -.713-1.221 4.784 4.784 0 0 1 3.389-3.406 1 1 0 0 1 .515 1.934 2.776 2.776 0 0 0 -1.97 1.976 1 1 0 0 1 -.966.75zm113.37-.928a1 1 0 0 1 -.867-.5 2.79 2.79 0 0 0 -2.4-1.39 1.009 1.009 0 0 1 -1.012-1 .991.991 0 0 1 .99-1h.022a4.8 4.8 0 0 1 4.135 2.388 1 1 0 0 1 -.864 1.5zm-7.272-1.889h-3.978a1 1 0 0 1 0-2h3.978a1 1 0 0 1 0 2zm-7.956 0h-3.978a1 1 0 0 1 0-2h3.978a1 1 0 0 1 0 2zm-7.956 0h-3.978a1 1 0 0 1 0-2h3.978a1 1 0 0 1 0 2zm-7.957 0h-3.978a1 1 0 0 1 0-2h3.978a1 1 0 0 1 0 2zm-7.956 0h-3.978a1 1 0 0 1 0-2h3.98a1 1 0 0 1 0 2zm-7.956 0h-3.978a1 1 0 0 1 0-2h3.978a1 1 0 0 1 0 2zm-7.956 0h-3.978a1 1 0 1 1 0-2h3.978a1 1 0 0 1 0 2zm-7.956 0h-3.978a1 1 0 0 1 0-2h3.978a1 1 0 0 1 0 2zm-7.956 0h-3.974a1 1 0 1 1 0-2h3.978a1 1 0 0 1 0 2zm-7.957 0h-3.978a1 1 0 1 1 0-2h3.978a1 1 0 1 1 0 2zm-7.956 0h-3.978a1 1 0 0 1 0-2h3.978a1 1 0 0 1 0 2zm-7.956 0h-3.978a1 1 0 0 1 0-2h3.978a1 1 0 0 1 0 2zm-7.956 0h-3.978a1 1 0 0 1 0-2h3.978a1 1 0 0 1 0 2z" fill="#a87b51"/><path d="m92.258 28.842h9.809v86.258h-9.809z" fill="#d6a774"/><path d="m89.917 80.759a1.748 1.748 0 0 1 -1.746-1.746v-14.083a1.749 1.749 0 0 1 1.746-1.747h14.49a1.749 1.749 0 0 1 1.747 1.747v14.083a1.749 1.749 0 0 1 -1.747 1.746zm12.744-3.492v-10.591h-11v10.591z" fill="#43567c"/><path d="m97.163 73.532a1 1 0 0 1 -1-1v-7.518a1 1 0 0 1 2 0v7.518a1 1 0 0 1 -1 1z" fill="#384868"/><path d="m25.933 28.842h9.809v86.258h-9.809z" fill="#d6a774"/><path d="m23.593 80.759a1.749 1.749 0 0 1 -1.747-1.746v-14.083a1.749 1.749 0 0 1 1.747-1.747h14.49a1.749 1.749 0 0 1 1.746 1.747v14.083a1.748 1.748 0 0 1 -1.746 1.746zm12.744-3.492v-10.591h-11v10.591z" fill="#43567c"/><path d="m30.838 73.532a1 1 0 0 1 -1-1v-7.518a1 1 0 0 1 2 0v7.518a1 1 0 0 1 -1 1z" fill="#384868"/><rect fill="#e1b378" height="7.976" rx="1.158" width="25.122" x="51.315" y="12.9"/><g opacity=".5"><path d="m76.44 14.06v5.66a1.161 1.161 0 0 1 -1.16 1.16h-22.81a1.152 1.152 0 0 1 -1.15-1.16v-.33h22.1a1.161 1.161 0 0 0 1.16-1.16v-5.33h.7a1.161 1.161 0 0 1 1.16 1.16z" fill="#bd8d5a"/></g></g></svg>