<svg height="512" viewBox="0 0 128 128" width="512" xmlns="http://www.w3.org/2000/svg"><g id="icon"><circle cx="64" cy="64" fill="#dbe2eb" r="60.248"/><g opacity=".5"><path d="m64 107.679a43.679 43.679 0 1 1 43.679-43.679 43.729 43.729 0 0 1 -43.679 43.679zm0-85.358a41.679 41.679 0 1 0 41.679 41.679 41.727 41.727 0 0 0 -41.679-41.679z" fill="#bac2d3"/></g><path d="m75.313 44.164s-10.054-14.336-15.639-15.264-9.122 9.865-17.314 17.125-8.192 13.033 0 12.474 32.953-14.335 32.953-14.335z" fill="#9a9fb2"/><path d="m68.8 79.537s-.745 5.213-9.123 7.819-.377 15.08 11.354 10.984 5.4-20.479 5.4-20.479z" fill="#9a9fb2"/><path d="m123.532 53.659s-22.9-15.639-49.15-10.8c0 0-20.852 4.655-33.139 15.267a12.037 12.037 0 0 1 -4.4 1.866c-1.29-.238-2.653-.54-4.108-.935-15.08-4.1-24.761-6.7-31.649-5.4-3.636.687 2.512 5.316 9.129 9.535a13.932 13.932 0 0 1 4.432 19.03c-5.644 9.2-10.727 19.465-.9 13.324 0 0 20.512-16.534 28.762-19.624a52.213 52.213 0 0 1 13.818 4.544c9.122 4.468 54.363 6.516 71.677-20.293v-2.232s-.004-3.165-4.472-4.282z" fill="#9297ab"/><g opacity=".5"><path d="m128 57.94v2.23c-17.31 26.81-62.55 24.77-71.68 20.3a52.115 52.115 0 0 0 -13.81-4.55c-8.26 3.09-28.77 19.63-28.77 19.63-5.8 3.62-6.4 1.53-4.76-2.69a20.807 20.807 0 0 0 2.33-1.28s20.51-16.54 28.76-19.63a52.06 52.06 0 0 1 13.82 4.55c9.12 4.47 54.36 6.51 71.68-20.3v-1.75a4.354 4.354 0 0 1 2.43 3.49z" fill="#84879c"/></g><path d="m95.317 50.227a10.453 10.453 0 0 0 -2.642 8.389 14.7 14.7 0 0 0 3.871 8.059 14.02 14.02 0 0 0 7.292 4.438c1.774.377 4.056.042 4.71-1.65 1.154-2.988-3.02-6.67-3.9-9.34-.8-2.416.2-3.739 1.1-5.874 2.888-6.889-6.548-8.043-10.431-4.022z" fill="#9a9fb2"/><path d="m113.109 52.518a2.763 2.763 0 1 0 2.763 2.763 2.763 2.763 0 0 0 -2.763-2.763z" fill="#b0b3c1"/><path d="m113.109 53.827a1.454 1.454 0 1 0 1.454 1.454 1.453 1.453 0 0 0 -1.454-1.454z" fill="#84879c"/><path d="m39.738 72.34a81.819 81.819 0 0 0 -21.07 13.583" fill="#9297ab"/><path d="m18.668 86.423a.5.5 0 0 1 -.332-.874 82.023 82.023 0 0 1 21.2-13.666.5.5 0 0 1 .406.914 81.024 81.024 0 0 0 -20.942 13.503.5.5 0 0 1 -.332.123z" fill="#84879c"/><path d="m38.272 69.862c-6.8 2.478-11.167 5.2-17.377 7.515" fill="#9297ab"/><path d="m20.9 77.877a.5.5 0 0 1 -.175-.969c2.946-1.1 5.433-2.27 8.065-3.51 2.824-1.329 5.744-2.7 9.316-4a.5.5 0 1 1 .343.939c-3.529 1.287-6.429 2.651-9.233 3.971-2.651 1.248-5.156 2.427-8.142 3.543a.5.5 0 0 1 -.174.026z" fill="#84879c"/><path d="m36.964 67.713a100.5 100.5 0 0 0 -15.727 4.875" fill="#9297ab"/><path d="m21.237 73.088a.5.5 0 0 1 -.18-.967 102.318 102.318 0 0 1 15.816-4.9.5.5 0 1 1 .183.982 101.386 101.386 0 0 0 -15.639 4.851.516.516 0 0 1 -.18.034z" fill="#84879c"/><path d="m36.1 65.7-15.194 1.088" fill="#9297ab"/><path d="m20.906 67.288a.5.5 0 0 1 -.035-1l15.191-1.088a.5.5 0 0 1 .071 1l-15.191 1.087z" fill="#84879c"/><path d="m35.613 63.845c-6.12.257-11.983-.881-18.117-1.913" fill="#9297ab"/><path d="m33.819 64.382a86.751 86.751 0 0 1 -14.66-1.66l-1.746-.3a.5.5 0 0 1 -.413-.573.5.5 0 0 1 .577-.411l1.749.3c5.544.947 10.787 1.843 16.264 1.61a.513.513 0 0 1 .52.479.5.5 0 0 1 -.478.521q-.91.035-1.813.034z" fill="#84879c"/><path d="m35.094 61.8-21.794-4.565" fill="#9297ab"/><path d="m35.1 62.3a.451.451 0 0 1 -.1-.011l-21.8-4.564a.5.5 0 0 1 -.387-.592.491.491 0 0 1 .592-.387l21.795 4.562a.5.5 0 0 1 -.1.989z" fill="#84879c"/><g fill="#9297ab"><path d="m59.628 90.437a.5.5 0 0 1 -.029-1 10.157 10.157 0 0 0 8.282-5.521.5.5 0 0 1 .9.439 11.036 11.036 0 0 1 -9.121 6.08z"/><path d="m61.566 93.64a.5.5 0 0 1 -.232-.944 21.174 21.174 0 0 0 8.4-7.988.5.5 0 1 1 .864.506 22.2 22.2 0 0 1 -8.8 8.369.5.5 0 0 1 -.232.057z"/><path d="m65.158 96.278a.5.5 0 0 1 -.276-.918 15.138 15.138 0 0 0 5.518-6.569c.119-.273.23-.553.342-.832a9.059 9.059 0 0 1 1.691-3.029.5.5 0 1 1 .723.689 8.232 8.232 0 0 0 -1.486 2.711c-.115.288-.23.575-.352.858a16.148 16.148 0 0 1 -5.886 7.012.5.5 0 0 1 -.274.078z"/><path d="m69.718 96.4a.5.5 0 0 1 -.393-.807 30.636 30.636 0 0 0 5.356-10.707.5.5 0 0 1 .965.261 31.627 31.627 0 0 1 -5.533 11.061.5.5 0 0 1 -.395.192z"/><path d="m71.092 45.592a.5.5 0 0 1 -.4-.2 25.5 25.5 0 0 0 -9.933-7.919.5.5 0 1 1 .408-.912 26.485 26.485 0 0 1 10.324 8.229.5.5 0 0 1 -.4.8z"/><path d="m66.008 48.134a.5.5 0 0 1 -.3-.1 35.107 35.107 0 0 0 -11.775-5.905.5.5 0 1 1 .272-.963 36.155 36.155 0 0 1 12.112 6.075.5.5 0 0 1 -.305.9z"/><path d="m59.533 49.3a.509.509 0 0 1 -.194-.039 45.383 45.383 0 0 0 -12.146-3.239.5.5 0 0 1 -.436-.557.5.5 0 0 1 .557-.436 46.486 46.486 0 0 1 12.414 3.31.5.5 0 0 1 -.2.961z"/><path d="m54.155 52.946a.533.533 0 0 1 -.141-.02 43.446 43.446 0 0 0 -9.692-1.688.5.5 0 1 1 .058-1 44.438 44.438 0 0 1 9.92 1.729.5.5 0 0 1 -.141.979z"/><path d="m47.924 55.351h-.034l-7.974-.529a.5.5 0 1 1 .066-1l7.975.529a.5.5 0 0 1 -.033 1z"/><path d="m78.134 51.593a2.821 2.821 0 0 1 0 5.642"/></g><path d="m78.134 57.735a.5.5 0 0 1 0-1 2.321 2.321 0 0 0 0-4.642.5.5 0 0 1 0-1 3.321 3.321 0 0 1 0 6.642z" fill="#84879c"/><path d="m84.118 60.143a2.821 2.821 0 0 1 0 5.642" fill="#9297ab"/><path d="m84.118 66.285a.5.5 0 0 1 0-1 2.321 2.321 0 0 0 0-4.642.5.5 0 0 1 0-1 3.321 3.321 0 0 1 0 6.642z" fill="#84879c"/><path d="m66.919 70.8a2.822 2.822 0 0 1 0 5.643" fill="#9297ab"/><path d="m66.919 76.94a.5.5 0 1 1 0-1 2.321 2.321 0 1 0 0-4.642.5.5 0 1 1 0-1 3.321 3.321 0 1 1 0 6.642z" fill="#84879c"/><path d="m59.552 62.964a2.821 2.821 0 0 1 0 5.642" fill="#9297ab"/><path d="m59.552 69.106a.5.5 0 1 1 0-1 2.321 2.321 0 1 0 0-4.642.5.5 0 1 1 0-1 3.321 3.321 0 1 1 0 6.642z" fill="#84879c"/><path d="m81.3 71.735a2.821 2.821 0 0 1 0 5.642" fill="#9297ab"/><path d="m81.3 77.877a.5.5 0 0 1 0-1 2.322 2.322 0 0 0 0-4.643.5.5 0 0 1 0-1 3.322 3.322 0 0 1 0 6.643z" fill="#84879c"/><path d="m73.9 62.964a2.821 2.821 0 1 1 0 5.642" fill="#9297ab"/><path d="m73.9 69.106a.5.5 0 1 1 0-1 2.321 2.321 0 1 0 0-4.642.5.5 0 1 1 0-1 3.321 3.321 0 1 1 0 6.642z" fill="#84879c"/><path d="m65.762 52.03a2.821 2.821 0 0 1 0 5.642" fill="#9297ab"/><path d="m65.762 58.172a.5.5 0 0 1 0-1 2.322 2.322 0 0 0 0-4.643.5.5 0 0 1 0-1 3.322 3.322 0 0 1 0 6.643z" fill="#84879c"/></g></svg>