<svg height="512" viewBox="0 0 128 128" width="512" xmlns="http://www.w3.org/2000/svg"><g id="icon"><path d="m122.276 43.962c0 .029-.007.058-.007.086-.4 4.708-.893 9.719-1.411 14.859-.439 4.384-.907 8.855-1.346 13.3-.5 5.04-.979 10.05-1.375 14.859-.317 3.837-.576 7.545-.763 11.051-.044.756-.08 1.512-.116 2.253-.28 5.421-.583 10.54-1.8 14.859-2.232 7.963-7.538 13.225-21.439 12.736-11.771-.418-16.594-5.767-18.221-12.736-1.073-4.564-.771-9.827-.159-14.859.238-1.951.519-3.866.792-5.687a65.124 65.124 0 0 0 1.433-7.617 81.6 81.6 0 0 0 .655-14.859 64.086 64.086 0 0 0 -2.045-13.3l-.043-.151c-1.108-4.067-2.57-9.186-3.837-14.708a120.977 120.977 0 0 1 -2.383-13.3 52.506 52.506 0 0 1 .094-14.866c1.505-8.571 6.242-14.971 16.955-15.782 13.54-1.032 22.828 6.21 28.44 15.778a49.958 49.958 0 0 1 5.63 14.866 46.354 46.354 0 0 1 .946 13.218z" fill="#f6ba5b"/><g fill="#dbe2eb"><path d="m121.326 30.744h-51.114a52.506 52.506 0 0 1 .094-14.866h45.394a49.958 49.958 0 0 1 5.626 14.866z"/><path d="m122.269 44.048c-.4 4.708-.893 9.719-1.411 14.859h-44.383l-.043-.151c-1.108-4.067-2.57-9.186-3.837-14.708z"/><path d="m119.512 72.211c-.5 5.04-.979 10.05-1.375 14.859h-40.272a81.6 81.6 0 0 0 .655-14.859z"/><path d="m117.258 100.374c-.28 5.421-.583 10.54-1.8 14.859h-39.658c-1.073-4.564-.771-9.827-.159-14.859z"/></g><path d="m119.573 60.508c-2.7-17.636-26-33.888-26-33.888l-.094-3.9c-.361-.852-2.311-.852-2.921 0l-.188 3.9s-14.208 9.343-17.407 32.78c-2.171 15.9 2.665 31.4 9.137 38.334a1.427 1.427 0 0 0 2.465-.827 21.825 21.825 0 0 0 -.739-8.836c-1.748-5.01-9.352-11.218-8.187-18.221 1.154-6.931 7.9-26.038 16.067-34.28 12.6 8.242 23.027 27.349 24.808 34.281 1.8 7-4.5 14.052-7.2 19.062-1.794 3.33-1.442 7.334-1 9.645a1.435 1.435 0 0 0 2.2.934c9.973-6.369 11.616-22.272 9.059-38.984z" fill="#4fa4d1"/><path d="m5.724 43.962c0 .029.007.058.007.086.4 4.708.893 9.719 1.411 14.859.439 4.384.907 8.855 1.346 13.3.5 5.04.979 10.05 1.375 14.859.317 3.837.576 7.545.763 11.051.044.756.08 1.512.116 2.253.28 5.421.583 10.54 1.8 14.859 2.232 7.963 7.538 13.225 21.439 12.736 11.771-.418 16.594-5.767 18.221-12.736 1.073-4.564.771-9.827.159-14.859-.238-1.951-.519-3.866-.792-5.687a65.124 65.124 0 0 1 -1.433-7.617 81.6 81.6 0 0 1 -.655-14.859 64.086 64.086 0 0 1 2.045-13.3l.043-.151c1.108-4.067 2.57-9.186 3.837-14.708a120.977 120.977 0 0 0 2.383-13.3 52.506 52.506 0 0 0 -.094-14.866c-1.505-8.571-6.242-14.971-16.955-15.782-13.54-1.032-22.828 6.21-28.44 15.778a49.958 49.958 0 0 0 -5.63 14.866 46.354 46.354 0 0 0 -.946 13.218z" fill="#f6ba5b"/><path d="m6.674 30.744h51.114a52.506 52.506 0 0 0 -.094-14.866h-45.394a49.958 49.958 0 0 0 -5.626 14.866z" fill="#dbe2eb"/><path d="m5.731 44.048c.4 4.708.893 9.719 1.411 14.859h44.383l.043-.151c1.108-4.067 2.57-9.186 3.837-14.708z" fill="#dbe2eb"/><path d="m8.488 72.211c.5 5.04.979 10.05 1.375 14.859h40.272a81.6 81.6 0 0 1 -.655-14.859z" fill="#dbe2eb"/><path d="m10.742 100.374c.28 5.421.583 10.54 1.8 14.859h39.658c1.073-4.564.771-9.827.159-14.859z" fill="#dbe2eb"/><path d="m8.427 60.508c2.7-17.636 26-33.888 26-33.888l.094-3.9c.361-.852 2.311-.852 2.921 0l.188 3.9s14.208 9.343 17.407 32.78c2.171 15.9-2.665 31.4-9.136 38.335a1.427 1.427 0 0 1 -2.465-.827 21.825 21.825 0 0 1 .739-8.836c1.748-5.01 9.352-11.218 8.187-18.221-1.154-6.931-7.9-26.038-16.067-34.28-12.6 8.242-23.027 27.349-24.808 34.281-1.8 7 4.5 14.052 7.2 19.062 1.794 3.33 1.442 7.334 1 9.645a1.435 1.435 0 0 1 -2.2.934c-9.974-6.37-11.617-22.273-9.06-38.985z" fill="#4fa4d1"/></g></svg>