<svg height="512" viewBox="0 0 128 128" width="512" xmlns="http://www.w3.org/2000/svg"><g id="icon"><path d="m115.577 93.409a3.908 3.908 0 1 1 -1.915-7.4 40.293 40.293 0 0 1 1.915 7.4z" fill="#dbe2eb"/><path d="m21.077 82.054a.992.992 0 0 1 -.993-.992v-7.275c-.252-1.724-3.17-23.756 9.455-40.848 7.413-10.039 18.686-16.239 33.508-18.42a.992.992 0 1 1 .289 1.963c-14.273 2.105-25.1 8.035-32.192 17.623-12.377 16.745-9.121 39.233-9.087 39.458a.948.948 0 0 1 .012.15v7.349a.992.992 0 0 1 -.992.992z" fill="#ef5361"/><path d="m106.411 82.054a.992.992 0 0 1 -.992-.992v-7.349a1.081 1.081 0 0 1 .011-.15c.034-.225 3.29-22.714-9.087-39.458-7.087-9.588-17.918-15.518-32.19-17.623a.992.992 0 1 1 .289-1.963c14.821 2.186 26.1 8.383 33.507 18.42 12.624 17.091 9.706 39.124 9.454 40.848v7.275a.991.991 0 0 1 -.992.992z" fill="#ef5361"/><path d="m56.967 26.794a.992.992 0 0 1 -.8-1.582 53.827 53.827 0 0 1 8.09-8.755.991.991 0 0 1 -.824-.818 26.275 26.275 0 0 1 -.509-7.633 9.532 9.532 0 0 1 3.948-6.951 6.259 6.259 0 0 1 8.026.868c2.053 2.458 1.343 5.981-.186 8.214a19.473 19.473 0 0 1 -4.986 4.563c-.293.21-.586.42-.875.634a51.8 51.8 0 0 0 -11.084 11.057.994.994 0 0 1 -.8.403zm13.554-24.806a4.8 4.8 0 0 0 -2.566.732 7.575 7.575 0 0 0 -3.055 5.535 24.794 24.794 0 0 0 .5 7.058.978.978 0 0 1 .014.178q1.11-.909 2.269-1.76c.3-.216.593-.43.891-.645a17.662 17.662 0 0 0 4.51-4.071c1.156-1.687 1.63-4.228.3-5.82a3.649 3.649 0 0 0 -2.863-1.207z" fill="#ef5361"/><path d="m75.17 26.794a.992.992 0 0 1 -.8-.4 51.9 51.9 0 0 0 -11.085-11.062c-.288-.214-.582-.424-.875-.634a19.469 19.469 0 0 1 -4.988-4.561c-1.53-2.233-2.24-5.756-.186-8.213a6.255 6.255 0 0 1 8.026-.869 9.527 9.527 0 0 1 3.947 6.951 26.607 26.607 0 0 1 -.508 7.633.993.993 0 0 1 -.825.818 53.932 53.932 0 0 1 8.092 8.755.993.993 0 0 1 -.8 1.582zm-13.555-24.806a3.648 3.648 0 0 0 -2.856 1.212c-1.33 1.591-.856 4.132.3 5.819a17.679 17.679 0 0 0 4.51 4.071c.3.215.6.429.891.645q1.16.852 2.27 1.76a.97.97 0 0 1 .013-.178 24.738 24.738 0 0 0 .5-7.058 7.572 7.572 0 0 0 -3.06-5.539 4.813 4.813 0 0 0 -2.568-.732z" fill="#ef5361"/><path d="m115.577 93.409c-.02-.128-.048-.25-.07-.377a2.855 2.855 0 0 1 -1.645-.743 2.667 2.667 0 0 1 -.664-2.664 6.74 6.74 0 0 1 -.178-1.5 2.891 2.891 0 0 1 .741-1.811c-.034-.1-.065-.2-.1-.294v-.01a40.362 40.362 0 0 0 -6.907-12.3c-27.119 4.784-35.782 22.19-38.521 33.82-.03.129-.06.267-.089.4a4.259 4.259 0 0 1 -6.8 2.381 4.209 4.209 0 0 1 -1.488-2.362c-2.64-11.64-11.184-29.4-38.622-34.235a41.42 41.42 0 0 0 -9.258 27.22c0 .054.007.11.009.165.039 0 .076-.014.114-.015a2.739 2.739 0 0 1 2.7 2.7c.01.411.087.819.092 1.231a3.762 3.762 0 0 1 -.954 2.639 2.222 2.222 0 0 1 -.822.582c.041.135.067.272.109.406a28.542 28.542 0 0 0 6.676 11.258c.107.112.223.215.332.325a2.879 2.879 0 0 1 1.42-.409 2.779 2.779 0 0 1 1.752.671l.033.013c-.4-.337-.1-.088.066.018l.026.019c.2.074.393.149.587.23a3.211 3.211 0 0 1 1.614 1.242 2.737 2.737 0 0 1 .27 2.091 2.112 2.112 0 0 1 -.184.487c.036.021.069.045.1.065.01.01.01.01.01 0a24.735 24.735 0 0 0 15.584 3.148c.1-.011.194-.031.29-.043a3.01 3.01 0 0 1 1.931-2.072c.273-.1.551-.175.83-.255.228-.065 1.112-.44.341-.079a2.774 2.774 0 0 1 3.52.741c.074-.028.148-.049.222-.078v-.01c.358-.139.715-.278 1.082-.427a35.785 35.785 0 0 1 13.962-2.719h.6a37.824 37.824 0 0 1 14.378 2.888 28.209 28.209 0 0 0 12.634 2.196c.125-.008.246-.028.371-.038a2.476 2.476 0 0 1 .739-1.416 7.329 7.329 0 0 1 2.5-1.309 2.679 2.679 0 0 1 3.088 1.36c.085-.031.174-.054.258-.086a28.042 28.042 0 0 0 17.514-22.377 37.975 37.975 0 0 0 -.193-10.667z" fill="#ef5361"/><g opacity=".5"><path d="m115.577 93.409c-.02-.128-.048-.25-.07-.377a2.855 2.855 0 0 1 -1.645-.743 2.667 2.667 0 0 1 -.664-2.664 6.74 6.74 0 0 1 -.178-1.5 2.891 2.891 0 0 1 .741-1.811c-.034-.1-.065-.2-.1-.294v-.01a40.362 40.362 0 0 0 -6.907-12.3c-.208.04-.407.07-.6.119a45.115 45.115 0 0 1 3.265 7.562v.01a42.089 42.089 0 0 1 1.756 7.393 41.318 41.318 0 0 1 .169 10.667c-1.072 9.447-7.165 18.785-16.016 22.377a20.846 20.846 0 0 1 -6.361 1.489 23.838 23.838 0 0 1 -11.551-2.193 32.071 32.071 0 0 0 -13.148-2.888h-.546a30.3 30.3 0 0 0 -12.771 2.719c-.338.149-.665.288-.993.427v.009a24.537 24.537 0 0 1 -6.519 1.787 21.025 21.025 0 0 1 -14.25-3.156c0 .01 0 .01-.01 0a24.855 24.855 0 0 1 -5.507-4.743 29.131 29.131 0 0 1 -6.1-11.263 26.667 26.667 0 0 1 -.913-4.565c-.119-1.062-.2-2.114-.228-3.146a43.941 43.941 0 0 1 5.418-22.5c-.2-.039-.4-.069-.606-.109a41.42 41.42 0 0 0 -9.258 27.22c0 .054.007.11.009.165.039 0 .076-.014.114-.015a2.739 2.739 0 0 1 2.7 2.7c.01.411.087.819.092 1.231a3.762 3.762 0 0 1 -.954 2.639 2.222 2.222 0 0 1 -.822.582c.041.135.067.272.109.406a28.542 28.542 0 0 0 6.667 11.266c.107.112.223.215.332.325a2.879 2.879 0 0 1 1.42-.409 2.779 2.779 0 0 1 1.752.671l.033.013c-.4-.337-.1-.088.066.018l.026.019c.2.074.393.149.587.23a3.211 3.211 0 0 1 1.614 1.242 2.737 2.737 0 0 1 .27 2.091 2.112 2.112 0 0 1 -.184.487c.036.021.069.045.1.065.01.01.01.01.01 0a24.735 24.735 0 0 0 15.584 3.148c.1-.011.194-.031.29-.043a3.01 3.01 0 0 1 1.931-2.072c.273-.1.551-.175.83-.255.228-.065 1.112-.44.341-.079a2.774 2.774 0 0 1 3.52.741c.074-.028.148-.049.222-.078v-.01c.358-.139.715-.278 1.082-.427a35.785 35.785 0 0 1 13.962-2.719h.6a37.824 37.824 0 0 1 14.378 2.888 28.209 28.209 0 0 0 12.634 2.196c.125-.008.246-.028.371-.038a2.476 2.476 0 0 1 .739-1.416 7.329 7.329 0 0 1 2.5-1.309 2.679 2.679 0 0 1 3.088 1.36c.085-.031.174-.054.258-.086a28.042 28.042 0 0 0 17.514-22.377 37.975 37.975 0 0 0 -.193-10.667z" fill="#da2a47"/></g><g fill="#dbe2eb"><circle cx="97.422" cy="85.438" r="3.909"/><circle cx="109.934" cy="109.592" r="3.909"/><circle cx="95.427" cy="105.683" r="3.909"/><path d="m68.233 107.53c-.032.132-.063.264-.093.395a4.252 4.252 0 0 1 -4.14 3.306h-.923a3.91 3.91 0 1 0 5.16-3.7z"/><circle cx="46.945" cy="108.679" r="3.909"/><circle cx="40.845" cy="91.238" r="3.909"/><circle cx="29.847" cy="105.683" r="3.909"/><path d="m27.28 121.7a3.887 3.887 0 0 1 -1.35 2.947c0 .01 0 .01-.01 0a26.68 26.68 0 0 1 -6.02-4.747 3.91 3.91 0 0 1 7.383 1.8z"/><circle cx="22.03" cy="87.329" r="3.909"/><path d="m16.6 104.771a3.907 3.907 0 0 1 -3.374 3.87 25.256 25.256 0 0 1 -1-4.565c-.129-1.061-.218-2.113-.248-3.145a3.327 3.327 0 0 1 .714-.07 3.911 3.911 0 0 1 3.908 3.91z"/><circle cx="79.932" cy="117.046" r="3.909"/><circle cx="82.704" cy="95.146" r="3.909"/><path d="m115.577 93.409a3.9 3.9 0 1 1 -1.915-7.393 40.181 40.181 0 0 1 1.915 7.393z"/><path d="m98.34 125.61a3.956 3.956 0 0 1 -.089.843 24.609 24.609 0 0 1 -6.956 1.489 3.909 3.909 0 1 1 7.045-2.332z"/><path d="m48.664 125.61c0 .139-.01.268-.02.4v.01a28.826 28.826 0 0 1 -7.134 1.78 3.912 3.912 0 1 1 7.154-2.193z"/></g></g></svg>