<svg height="512" viewBox="0 0 128 128" width="512" xmlns="http://www.w3.org/2000/svg"><g id="icon"><path d="m95.888 102.342s-2.764-4.879-.976-14.8-1.951-20 5.855-24.393c0 0 1.463-5.041-4.716-4.228s-8.294 6.5-9.595 13.172-4.878 9.757-9.594 7.643-5.362-1.624-11.952-10.243-9.351-10.91-13.416-10.659-3.415 3.864-1.463 5.391 8.781 11.448 8.781 11.448-12.359-16.313-17.4-16.857-6.712 1.895-6.712 1.895-1.254-1.464-4.507-1.951-5.854 1.952-6.016 3.741 12.844 11.383 20.65 22.115 27.482 32.684 27.482 32.684z" fill="#e8c79c"/><path d="m34.7 60.71c3.244 2.616 5.906 5.849 8.733 8.88 1.4 1.528 2.938 3.178 4.229 4.806a34.96 34.96 0 0 1 3.667 4.729c-1.408-1.532-2.862-2.994-4.276-4.5l-4.243-4.511c-2.788-3.048-5.56-6.114-8.11-9.404z" fill="#ddb087"/><rect fill="#43567c" height="16.772" rx="1.264" transform="matrix(.832 -.554 .554 .832 -47.861 66.436)" width="33.257" x="69.199" y="103.903"/><path d="m64 7.354a48.906 48.906 0 0 0 -48.906 48.906c0 .559.024 1.112.042 1.666h97.728c.018-.554.042-1.107.042-1.666a48.906 48.906 0 0 0 -48.906-48.906z" fill="#c1cdd3"/><path d="m112.906 56.256c0 .566-.024 1.121-.037 1.675h-18.9c.025-.554.05-1.109.05-1.675a48.9 48.9 0 0 0 -39.463-47.981 47.858 47.858 0 0 1 9.444-.923 48.905 48.905 0 0 1 48.906 48.904z" fill="#bac2d3"/><path d="m119.039 55.946h-110.078a2.751 2.751 0 0 0 0 5.5h110.078a2.751 2.751 0 0 0 0-5.5z" fill="#c1cdd3"/><path d="m121.786 58.694a2.752 2.752 0 0 1 -2.747 2.759h-110.074a2.727 2.727 0 0 1 -2.648-2.02.665.665 0 0 0 .16.013h110.075a2.751 2.751 0 0 0 2.758-2.746 2.444 2.444 0 0 0 -.111-.739 2.733 2.733 0 0 1 2.587 2.733z" fill="#bac2d3"/><path d="m64 0a5.353 5.353 0 1 0 5.353 5.353 5.353 5.353 0 0 0 -5.353-5.353z" fill="#c1cdd3"/><path d="m69.353 5.354a5.348 5.348 0 0 1 -10.5 1.428 5.232 5.232 0 0 0 2.709.752 5.361 5.361 0 0 0 5.357-5.358 5.023 5.023 0 0 0 -.214-1.428 5.32 5.32 0 0 1 2.648 4.606z" fill="#bac2d3"/></g></svg>