<svg height="512" viewBox="0 0 128 128" width="512" xmlns="http://www.w3.org/2000/svg"><g id="icon"><path d="m108.086 48.476v79.524h-88.172v-79.524a27.965 27.965 0 0 0 3.868-3.05 31.008 31.008 0 0 0 6.918-9.826 47.18 47.18 0 0 0 3.664-13.66 68.972 68.972 0 0 0 .481-9.823 72.4 72.4 0 0 0 -1.208-12.117h11.574c0 4.462-.01 8.483.133 12.117a58.374 58.374 0 0 0 1.034 9.823 28.367 28.367 0 0 0 .706 2.825 16.966 16.966 0 0 0 9.568 10.835 18.817 18.817 0 0 0 14.7 0 16.966 16.966 0 0 0 9.568-10.837 28.367 28.367 0 0 0 .706-2.825 58.374 58.374 0 0 0 1.034-9.823c.143-3.634.133-7.655.133-12.117h11.559a72.476 72.476 0 0 0 -1.207 12.117 70.475 70.475 0 0 0 .481 9.823 46.887 46.887 0 0 0 3.674 13.662 30.85 30.85 0 0 0 6.918 9.824 27.23 27.23 0 0 0 3.868 3.052z" fill="#86be7a"/><path d="m108.086 48.476v79.524h-5.117v-79.524a27.23 27.23 0 0 1 -3.868-3.05 30.866 30.866 0 0 1 -6.918-9.826 46.887 46.887 0 0 1 -3.674-13.66 70.475 70.475 0 0 1 -.481-9.823 72.4 72.4 0 0 1 1.208-12.117h5.116a72.476 72.476 0 0 0 -1.207 12.117 70.475 70.475 0 0 0 .481 9.823 46.887 46.887 0 0 0 3.674 13.66 30.85 30.85 0 0 0 6.918 9.824 27.23 27.23 0 0 0 3.868 3.052z" fill="#7aaa6f"/><path d="m108.086 48.476v79.524h-88.172v-79.524a27.965 27.965 0 0 0 3.868-3.05 31.008 31.008 0 0 0 6.918-9.826 47.18 47.18 0 0 0 3.664-13.66 68.972 68.972 0 0 0 .481-9.823 72.4 72.4 0 0 0 -1.208-12.117h11.574c0 4.462-.01 8.483.133 12.117a58.374 58.374 0 0 0 1.034 9.823 28.367 28.367 0 0 0 .706 2.825 16.966 16.966 0 0 0 9.568 10.835 18.817 18.817 0 0 0 14.7 0 16.966 16.966 0 0 0 9.568-10.837 28.367 28.367 0 0 0 .706-2.825 58.374 58.374 0 0 0 1.034-9.823c.143-3.634.133-7.655.133-12.117h11.559a72.476 72.476 0 0 0 -1.207 12.117 70.475 70.475 0 0 0 .481 9.823 46.887 46.887 0 0 0 3.674 13.662 30.85 30.85 0 0 0 6.918 9.824 27.23 27.23 0 0 0 3.868 3.052z" fill="none"/><g fill="#dbe2eb"><path d="m19.914 106.06h88.172v9.824h-88.172z"/><path d="m19.914 82.574h88.172v9.824h-88.172z"/><path d="m19.914 59.088h88.172v9.824h-88.172z"/><path d="m104.218 45.426h-80.436a31.008 31.008 0 0 0 6.918-9.826h25.952a18.817 18.817 0 0 0 14.7 0h25.948a30.85 30.85 0 0 0 6.918 9.826z"/><path d="m45.344 12.117a58.374 58.374 0 0 0 1.034 9.823h-12.014a68.972 68.972 0 0 0 .481-9.823z"/><path d="m93.626 21.94h-12a58.374 58.374 0 0 0 1.034-9.823h10.485a70.475 70.475 0 0 0 .481 9.823z"/></g></g></svg>