<svg height="512" viewBox="0 0 128 128" width="512" xmlns="http://www.w3.org/2000/svg"><g id="icon"><g fill="#f6ba5b"><path d="m45.666 31.852c-4.867-3.1-8.311-4.977-17.939 1.527-12.357 8.347-25.606 25.474-25.606 25.474l2.272 4.969s17.666-24.065 27.04-27.508c7.191-2.642 9.16-.95 13.709 2.036 1.217.8 2.322-.035 2.461-1.847a5.454 5.454 0 0 0 -1.937-4.651z"/><path d="m82.378 31.852c4.866-3.1 8.311-4.977 17.939 1.527 12.357 8.347 25.606 25.474 25.606 25.474l-2.272 4.969s-17.666-24.065-27.04-27.508c-7.191-2.642-9.161-.95-13.709 2.036-1.217.8-2.322-.035-2.461-1.847a5.449 5.449 0 0 1 1.937-4.651z"/><path d="m88.98 49.516h-51.751a1.709 1.709 0 1 0 0 3.418h51.751a1.709 1.709 0 0 0 0-3.418z"/><path d="m71.5 72.208c-4.364-6.163-11.439-6.163-15.8 0l-2.438-3.442c5.71-8.063 14.969-8.063 20.679 0z"/></g><path d="m68.256 64.513s-.643-15.416 21.2-14.988c19.287.378 32.729 5.929 35.609 7.222a1.918 1.918 0 0 1 .909.85 16.973 16.973 0 0 1 2.026 7.014 2.007 2.007 0 0 1 -.525 1.419c-.751.833-2.049 3.066-2.049 8.547 0 7.708-7.923 24.409-23.981 24.409s-32.545-13.486-33.189-34.473z" fill="#faba59"/><path d="m119.64 70.494c-.71 8.72-3.96 22.2-18.79 23.7a20.119 20.119 0 0 1 -13-3.55c-.44-.28-.88-.58-1.3-.889-.84-.611-1.64-1.26-2.4-1.921a38.537 38.537 0 0 1 -2.87-2.839 35.91 35.91 0 0 1 -4.2-5.591c-2.26-3.75-4.1-10.909-3.26-15.169.9-4.561 2.89-7.551 11.75-9.25a39.119 39.119 0 0 1 20.58 1.379 31.478 31.478 0 0 1 3.86 1.691 24.012 24.012 0 0 1 2.69 1.6c.44.3.87.6 1.27.91 3.81 2.978 5.94 6.588 5.67 9.929z" fill="#43567c"/><path d="m59.744 64.513s.643-15.416-21.2-14.988c-19.284.375-32.726 5.929-35.606 7.222a1.918 1.918 0 0 0 -.909.85 16.973 16.973 0 0 0 -2.029 7.014 2.007 2.007 0 0 0 .526 1.419c.751.833 2.049 3.066 2.049 8.547 0 7.708 7.923 24.409 23.981 24.409s32.544-13.486 33.188-34.473z" fill="#faba59"/><path d="m49.79 79.4c-3.71 6.191-12.84 15.9-23.77 14.79a19.662 19.662 0 0 1 -8.69-2.849 14.828 14.828 0 0 1 -1.29-.9 16.682 16.682 0 0 1 -2.27-2.08 19.911 19.911 0 0 1 -2.44-3.32c-2.75-4.65-3.75-10.19-4.1-14.549-.66-8.19 13.02-17.96 30.65-16.02 1.12.12 2.27.29 3.42.51.43.079.84.169 1.24.26a29.268 29.268 0 0 1 3.28.909 15.954 15.954 0 0 1 1.53.621c3.86 1.75 5.06 4.21 5.7 7.46.84 4.262-1 11.421-3.26 15.168z" fill="#43567c"/><g fill="#fff" opacity=".2"><path d="m110.01 58.054-25.86 29.779a38.537 38.537 0 0 1 -2.87-2.839l24.87-28.631a31.478 31.478 0 0 1 3.86 1.691z"/><path d="m113.97 60.563-26.12 30.08c-.44-.28-.88-.58-1.3-.889l26.15-30.1c.44.3.87.6 1.27.909z"/></g><g fill="#fff" opacity=".2"><path d="m42.54 55.244-28.77 33.119a19.911 19.911 0 0 1 -2.44-3.32l26.55-30.569c1.12.12 2.27.29 3.42.51.43.079.84.169 1.24.26z"/><path d="m47.35 56.774-30.02 34.57a14.828 14.828 0 0 1 -1.29-.9l29.78-34.29a15.954 15.954 0 0 1 1.53.62z"/></g></g></svg>