<svg height="512" viewBox="0 0 128 128" width="512" xmlns="http://www.w3.org/2000/svg"><g id="icon"><g fill="#c1cdd3"><path d="m103.713 112.961a1 1 0 0 1 -1-1v-43.027a1 1 0 0 1 2 0v43.027a1 1 0 0 1 -1 1z"/><path d="m125.227 91.448h-43.027a1 1 0 0 1 0-2h43.028a1 1 0 0 1 0 2z"/><path d="m88.5 106.661a1 1 0 0 1 -.707-1.707l30.425-30.425a1 1 0 1 1 1.414 1.414l-30.425 30.425a1 1 0 0 1 -.707.293z"/><path d="m118.925 106.661a1 1 0 0 1 -.707-.293l-30.425-30.425a1 1 0 1 1 1.414-1.414l30.425 30.425a1 1 0 0 1 -.707 1.707z"/></g><path d="m103.713 114.961a24.514 24.514 0 1 1 24.514-24.513 24.542 24.542 0 0 1 -24.514 24.513zm0-43.027a18.514 18.514 0 1 0 18.514 18.514 18.536 18.536 0 0 0 -18.514-18.514z" fill="#2f3a5a"/><path d="m25.4 112.961a1 1 0 0 1 -1-1v-43.027a1 1 0 0 1 2 0v43.027a1 1 0 0 1 -1 1z" fill="#c1cdd3"/><path d="m46.91 91.448h-43.027a1 1 0 1 1 0-2h43.027a1 1 0 1 1 0 2z" fill="#c1cdd3"/><path d="m10.185 106.661a1 1 0 0 1 -.707-1.707l30.422-30.425a1 1 0 1 1 1.414 1.414l-30.422 30.425a1 1 0 0 1 -.707.293z" fill="#c1cdd3"/><path d="m40.609 106.661a1 1 0 0 1 -.707-.293l-30.424-30.425a1 1 0 1 1 1.414-1.414l30.424 30.425a1 1 0 0 1 -.707 1.707z" fill="#c1cdd3"/><path d="m25.4 114.961a24.514 24.514 0 1 1 24.51-24.513 24.541 24.541 0 0 1 -24.51 24.513zm0-43.027a18.514 18.514 0 1 0 18.51 18.514 18.535 18.535 0 0 0 -18.51-18.514z" fill="#2f3a5a"/><path d="m24.233 92.448a2 2 0 0 1 -1.777-2.914c13.315-25.929 11.9-56.408 11.883-56.713 0-.034 0-.07 0-.1v-6.93a2 2 0 0 1 1.357-1.895c.452-.152 11.1-3.676 16.413 1.84a2 2 0 1 1 -2.878 2.777c-2.512-2.6-7.865-1.964-10.892-1.217v5.374c.094 1.912 1.328 32.113-12.321 58.7a2 2 0 0 1 -1.785 1.078z" fill="#4fa4d1"/><path d="m103.713 92.448c-.057 0-.113 0-.17-.007l-39.713-3.39a2 2 0 0 1 -1.527-.935l-27.603-44.285a2 2 0 0 1 2-3.035l48.43 7.381a2 2 0 0 1 1.509 1.129l18.884 40.294a2 2 0 0 1 -1.81 2.849zm-38.545-7.3 35.264 3.01-16.965-36.187-43.074-6.564z" fill="#4fa4d1"/><path d="m64 89.058a2 2 0 0 1 -1.728-3l27.881-48.139a2 2 0 0 1 3.461 2.006l-27.884 48.136a2 2 0 0 1 -1.73.997z" fill="#4fa4d1"/><path d="m79.175 31.319s16.74-4.882 24.611.375-2.271 12.017-11.957 9.013-18.817-6.667-12.654-9.388z" fill="#43567c"/><path d="m91.827 40.7c-8.78-2.72-17.11-5.98-13.99-8.591a105.564 105.564 0 0 0 11.9 3.83c6.6 1.791 13.38.111 15.86-2.659 4.06 4.913-5.04 10.133-13.77 7.42z" fill="#384868"/><path d="m63.716 77.845a9.71 9.71 0 1 0 0 19.419c5.362 0 43.852 2.448 43.852-8.184 0-9.546-38.49-11.235-43.852-11.235z" fill="#6bb3d9"/><path d="m64.038 80.187a7.69 7.69 0 1 0 7.577 7.69 7.634 7.634 0 0 0 -7.577-7.69z" fill="#4fa4d1"/><path d="m64.038 84.228a3.649 3.649 0 1 0 3.6 3.649 3.623 3.623 0 0 0 -3.6-3.649z" fill="#477ea8"/><path d="m64 86.708a1.421 1.421 0 0 0 -1.421 1.421v16.515a1.421 1.421 0 1 0 2.842 0v-16.515a1.421 1.421 0 0 0 -1.421-1.421z" fill="#c1cdd3"/><rect fill="#43567c" height="3.685" rx=".533" width="11.684" x="58.37" y="102.927"/></g></svg>