<svg height="512" viewBox="0 0 128 128" width="512" xmlns="http://www.w3.org/2000/svg"><g id="icon"><path d="m73.594 2.394a6.452 6.452 0 0 0 -3.994-1.394h-6.084a2.426 2.426 0 0 0 -2.456 2.111 2.341 2.341 0 0 0 2.329 2.57h6.011a19.54 19.54 0 0 1 8.238 17.219c-.369 9.957-14.172 12.21-19.329 12.7a2.12 2.12 0 0 0 -1.917 2.116v6.788h14.286v-4.574s12.109-5.43 12.522-16.795a24.894 24.894 0 0 0 -9.606-20.741z" fill="#43567c"/><path d="m74.749 43.035h-21.5a1.11 1.11 0 0 0 -1.11 1.11v4.589h23.72v-4.589a1.11 1.11 0 0 0 -1.11-1.11z" fill="#384868"/><path d="m101.69 53.46a8.238 8.238 0 0 0 -7.908-6.027h-59.564a8.238 8.238 0 0 0 -7.908 6.027c-6.6 23.256-7.417 45.952-.215 67.87a8.223 8.223 0 0 0 7.805 5.67h60.2a8.223 8.223 0 0 0 7.806-5.667c7.201-21.921 6.381-44.617-.216-67.873z" fill="#dbe2eb"/><g opacity=".5"><path d="m101.907 121.328a8.239 8.239 0 0 1 -7.807 5.672h-60.2a8.221 8.221 0 0 1 -7.8-5.672c-.247-.751-.485-1.5-.706-2.252h57.254a8.223 8.223 0 0 0 7.809-5.672c7.006-21.318 6.423-43.377.319-65.967h3a8.232 8.232 0 0 1 7.907 6.025c6.602 23.252 7.424 45.948.224 67.866z" fill="#c1cdd3"/></g><path d="m99.85 85.083h-71.7a126.622 126.622 0 0 1 4.96-29.69 1.163 1.163 0 0 1 1.11-.889h59.56a1.163 1.163 0 0 1 1.11.889 126.622 126.622 0 0 1 4.96 29.69z" fill="#6bb3d9"/><path d="m97.142 100.988h-66.284a2.7 2.7 0 0 0 0 5.409h66.284a2.7 2.7 0 0 0 0-5.409z" fill="#4fa4d1"/><g fill="#fff" opacity=".25"><path d="m73 54.504-15.91 30.579h-6.45l15.92-30.579z"/><path d="m79.07 54.504-15.92 30.579h-3.22l15.92-30.579z"/></g></g></svg>