<svg height="512" viewBox="0 0 128 128" width="512" xmlns="http://www.w3.org/2000/svg"><g id="icon"><path d="m128 41.6v39.488a2.718 2.718 0 0 1 -2.718 2.718h-110.806a14.176 14.176 0 0 1 -12.2-21.534 15.742 15.742 0 0 1 2.039-2.739l14.117-15.225.812-.872a14.29 14.29 0 0 1 10.456-4.554h95.581a2.718 2.718 0 0 1 2.719 2.718z" fill="#dbe2eb"/><path d="m.226 70.016a14.258 14.258 0 0 0 14.243 13.79h110.806a2.718 2.718 0 0 0 2.718-2.718v-11.072z" fill="#a0ca8b"/><path d="m127.986 76.913v4.17a2.717 2.717 0 0 1 -2.72 2.721h-110.8a14.254 14.254 0 0 1 -14.236-13.691 14.19 14.19 0 0 0 12.126 6.8z" fill="#86be7a"/><g fill="#43567c"><path d="m36.02 47.9v10.77a3.6 3.6 0 0 1 -3.6 3.6h-30.15a15.569 15.569 0 0 1 2.04-2.74l14.12-15.23h13.99a3.6 3.6 0 0 1 3.6 3.6z"/><rect height="17.97" rx="2.4" width="30.21" x="45.82" y="44.304"/><path d="m117.99 46.7v13.173a2.4 2.4 0 0 1 -2.4 2.4h-25.42a2.392 2.392 0 0 1 -2.39-2.4v-13.173a2.4 2.4 0 0 1 2.39-2.4h25.42a2.406 2.406 0 0 1 2.4 2.4z"/><path d="m0 83.806h128v5.312h-128z"/></g><g fill="#fff" opacity=".25"><path d="m67.79 44.304-10.38 17.97h-4.18l10.37-17.97z"/><path d="m71.94 44.304-10.38 17.97h-1.51l10.37-17.97z"/></g><g fill="#fff" opacity=".25"><path d="m107.57 44.304-10.38 17.97h-4.18l10.37-17.97z"/><path d="m111.72 44.304-10.38 17.97h-1.51l10.37-17.97z"/></g></g></svg>