<svg height="512" viewBox="0 0 128 128" width="512" xmlns="http://www.w3.org/2000/svg"><g id="icon"><g fill="#bac2d3"><path d="m90.116 59.489a.845.845 0 0 0 -.116-1.667l-23.232.559.484 5.251z"/><path d="m37.936 59.489a.845.845 0 0 1 .17-1.667l23.232.559-.538 5.251z"/><path d="m64.976 32.827a.984.984 0 0 0 -1.951 0l-2.095 26.967h6.143z"/></g><path d="m78.592 76.366 49.408-6.007v-3.534l-49.086 1.908-.468.685" fill="#dbe2eb"/><path d="m128 66.825v3.537l-49.408 6.004-.035-1.754 46.423-5.669v-2.013z" fill="#c1cdd3"/><path d="m93.869 71.6a5.757 5.757 0 1 0 5.757 5.757 5.757 5.757 0 0 0 -5.757-5.757z" fill="#b0b3c1"/><path d="m93.792 74.949a2.4 2.4 0 1 0 2.405 2.4 2.4 2.4 0 0 0 -2.405-2.4z" fill="#84879c"/><path d="m49.554 69.418-.468-.685-49.086-1.908v3.534l49.408 6.007" fill="#dbe2eb"/><path d="m0 66.825v3.537l49.408 6.004.035-1.754-46.423-5.669v-2.013z" fill="#c1cdd3"/><path d="m34.131 71.6a5.757 5.757 0 1 1 -5.757 5.757 5.757 5.757 0 0 1 5.757-5.757z" fill="#b0b3c1"/><path d="m34.131 74.949a2.406 2.406 0 0 1 0 4.809 2.4 2.4 0 0 1 0-4.809z" fill="#84879c"/><path d="m64 57.3c-9.337 0-16.906 8.131-16.906 18.16s8.879 20.567 16.906 20.567c8.091 0 16.906-10.54 16.906-20.57s-7.569-18.157-16.906-18.157z" fill="#c1cdd3"/><path d="m80.9 75.462c0 10.031-8.815 20.569-16.9 20.569-5.334 0-11.048-4.658-14.268-10.734 3.2 3.839 7.394 6.433 11.373 6.433 8.088 0 16.9-10.549 16.9-20.58a19.079 19.079 0 0 0 -1.9-8.347 18.814 18.814 0 0 1 4.795 12.659z" fill="#bac2d3"/><path d="m72.933 63.647a50.929 50.929 0 0 0 -8.012-.758q-.772-.012-1.546 0a50.81 50.81 0 0 0 -8.012.758 55.77 55.77 0 0 0 -3.311 6.614 45.968 45.968 0 0 1 11.4-1.62q.694-.011 1.39 0a45.882 45.882 0 0 1 11.4 1.62 55.77 55.77 0 0 0 -3.309-6.614z" fill="#6bb3d9"/><path d="m76.244 70.769a.515.515 0 0 1 -.134-.018 45.452 45.452 0 0 0 -11.275-1.6c-.457-.008-.914-.008-1.374 0a45.452 45.452 0 0 0 -11.275 1.6.508.508 0 0 1 -.6-.686 56.728 56.728 0 0 1 3.342-6.675.5.5 0 0 1 .351-.243 51.477 51.477 0 0 1 8.092-.767c.522-.006 1.04-.006 1.56 0a51.716 51.716 0 0 1 8.092.767.507.507 0 0 1 .351.243 56.261 56.261 0 0 1 3.341 6.675.506.506 0 0 1 -.468.7zm-12.1-2.641q.352 0 .7 0a46.5 46.5 0 0 1 10.515 1.374 55.057 55.057 0 0 0 -2.753-5.4 50.663 50.663 0 0 0 -7.7-.712c-.508-.008-1.02-.008-1.53 0a50.386 50.386 0 0 0 -7.7.712 55.5 55.5 0 0 0 -2.753 5.4 46.512 46.512 0 0 1 10.515-1.374q.362.001.71 0z" fill="#477ea8"/><path d="m64.148 69.144a.507.507 0 0 1 -.508-.508v-5.753a.508.508 0 0 1 1.016 0v5.753a.507.507 0 0 1 -.508.508z" fill="#477ea8"/></g></svg>