<svg height="512" viewBox="0 0 128 128" width="512" xmlns="http://www.w3.org/2000/svg"><g id="icon"><path d="m3.364 82.459v-3.5h-3.015v6.056a1.112 1.112 0 0 0 1.111 1.111h23.923v-3.667z" fill="#43567c"/><path d="m127.651 41.386v41.5a6.006 6.006 0 0 1 -6.014 6.014h-99.491a6.02 6.02 0 0 1 -6.014-6.014v-41.5a14.681 14.681 0 0 1 14.674-14.674h82.194a14.664 14.664 0 0 1 14.651 14.674z" fill="#e1e6e9"/><path d="m112.993 26.718h-82.188a14.656 14.656 0 0 0 -14.3 11.447h110.785a14.655 14.655 0 0 0 -14.297-11.447z" fill="#faba59"/><rect fill="#c1cdd3" height="18.042" rx="3.061" width="34.079" x="68.42" y="45.414"/><path d="m72.423 49.425h26.06v10.023h-26.06z" fill="#4fa4d1"/><rect fill="#c1cdd3" height="18.042" rx="3.061" width="22.051" x="38.526" y="45.414"/><path d="m42.533 49.425h14.033v10.023h-14.033z" fill="#4fa4d1"/><path d="m87.3 88.9h-30.794a15.4 15.4 0 0 1 30.791 0z" fill="#bac2d3"/><path d="m71.9 76.76a12.264 12.264 0 1 0 12.263 12.264 12.263 12.263 0 0 0 -12.263-12.264z" fill="#384868"/><path d="m71.9 82.459a6.565 6.565 0 1 0 6.565 6.565 6.565 6.565 0 0 0 -6.565-6.565z" fill="#43567c"/><g fill="#fff"><g opacity=".25"><path d="m87.418 49.425-6.455 10.023h-2.185l6.435-10.023z"/><path d="m93.291 49.425-6.435 10.023h-4.731l6.435-10.023z"/></g><g opacity=".25"><path d="m50.352 49.425-6.435 10.023h-1.384v-1.162l5.694-8.861z"/><path d="m56.125 49.425-6.435 10.023h-4.631l6.435-10.023z"/></g></g></g></svg>