<svg height="512" viewBox="0 0 128 128" width="512" xmlns="http://www.w3.org/2000/svg"><g id="icon"><rect fill="#c1cdd3" height="48.708" rx="2.876" transform="matrix(.929 -.371 .371 .929 -19.39 26.957)" width="112.488" x="4.16" y="39.546"/><path d="m30.3 49.7-28.49 11.374a2.876 2.876 0 0 0 -1.6 3.738l15.926 39.888a2.876 2.876 0 0 0 3.737 1.605l28.492-11.374z" fill="#d0aa79"/><path d="m31.346 49.235h1.36v5.893h-1.36z" fill="#b0b3c1" transform="matrix(.929 -.371 .371 .929 -17.067 15.597)"/><path d="m34.522 57.187h1.36v5.893h-1.36z" fill="#b0b3c1" transform="matrix(.929 -.371 .371 .929 -19.79 17.342)"/><path d="m37.697 65.139h1.36v5.893h-1.36z" fill="#c1cdd3" transform="matrix(.929 -.371 .371 .929 -22.513 19.087)"/><path d="m40.873 73.091h1.36v5.893h-1.36z" fill="#c1cdd3" transform="matrix(.929 -.371 .371 .929 -25.235 20.831)"/><path d="m44.048 81.044h1.36v5.893h-1.36z" fill="#c1cdd3" transform="matrix(.929 -.371 .371 .929 -27.958 22.576)"/><path d="m47.223 88.996h1.36v5.893h-1.36z" fill="#c1cdd3" transform="matrix(.929 -.371 .371 .929 -30.681 24.32)"/><rect fill="#e1e6e9" height="48.708" rx="2.876" width="112.488" x="15.512" y="58.007"/><path d="m49.067 58.007h-30.679a2.875 2.875 0 0 0 -2.876 2.876v42.955a2.875 2.875 0 0 0 2.876 2.876h30.679z" fill="#e8c79c"/><g opacity=".75"><path d="m100.365 71.527h-.839v-1.177a1.547 1.547 0 0 0 -1.545-1.55h-1.866a7.878 7.878 0 0 0 -.584-2.124c-1.131-1.92-11.567-2.222-11.567-2.222s-.088 0-.243.01c-.156-.01-.234-.01-.234-.01s-10.437.3-11.567 2.222a7.869 7.869 0 0 0 -.585 2.124h-1.871a1.548 1.548 0 0 0 -1.546 1.546v1.177h-.839a.38.38 0 0 0 -.38.38v4.737a.38.38 0 0 0 .38.38h2.292a.38.38 0 0 0 .38-.38v-4.733a.38.38 0 0 0 -.38-.38h-.681v-1.177a.775.775 0 0 1 .774-.774h1.745a74.975 74.975 0 0 0 -.682 12.724v5.73l.009 7.864v.029a1.179 1.179 0 0 0 .03.263.7.7 0 0 0 .058.2 1.064 1.064 0 0 0 .156.292.58.58 0 0 0 .117.156 1.226 1.226 0 0 0 .4.3v2.443a.679.679 0 0 0 .68.679h2.642a.68.68 0 0 0 .68-.679v-2.3h16.848v2.306a.679.679 0 0 0 .679.679h2.643a.679.679 0 0 0 .679-.679v-2.444a1.062 1.062 0 0 0 .377-.271 1.517 1.517 0 0 0 .146-.175 1.325 1.325 0 0 0 .146-.283 1.028 1.028 0 0 0 .068-.243 1.209 1.209 0 0 0 .029-.273l.01-13.594a76.128 76.128 0 0 0 -.682-12.724h1.739a.774.774 0 0 1 .773.774v1.177h-.681a.38.38 0 0 0 -.38.38v4.733a.38.38 0 0 0 .38.38h2.292a.38.38 0 0 0 .38-.38v-4.733a.38.38 0 0 0 -.38-.38zm-28.338 7.928c.039-5.048.692-10.768 1.189-11.927.906-.682 5.632-1.394 10.28-1.52h.449c.185 0 .37.009.545.009.517.03 1.024.049 1.52.088.449.02.9.059 1.326.088.253.029.5.049.74.068 3.031.3 5.525.789 6.149 1.267.5 1.13 1.15 6.87 1.2 11.927v.8c0 .234 0 .507-.01.789s-.01.585-.02.867c0 .108 0 .215-.01.322l-.009.039a.273.273 0 0 1 -.273.273h-22.764a.279.279 0 0 1 -.273-.273v-.039c0-.107-.009-.224-.009-.341-.02-.351-.02-.721-.03-1.062-.009-.448-.009-.858-.009-1.111a2.568 2.568 0 0 1 .009-.264zm7.542 10.982v-1.3h8.3v1.3zm8.3.926v1.286h-8.3v-1.286zm-10.112.537a.393.393 0 0 1 -.39.4h-5.047a.4.4 0 0 1 -.4-.4v-2.36a.4.4 0 0 1 .4-.4h5.047a.393.393 0 0 1 .39.4zm10.183 3.9a.345.345 0 0 1 -.341.341h-7.747a.339.339 0 0 1 -.341-.341v-1.329a.339.339 0 0 1 .341-.341h7.748a.345.345 0 0 1 .341.341zm1.744-3.9v-2.36a.4.4 0 0 1 .4-.4h5.047a.393.393 0 0 1 .39.4v2.36a.393.393 0 0 1 -.39.4h-5.047a.4.4 0 0 1 -.4-.4z" fill="#c1cdd3"/></g><g fill="#c1cdd3"><path d="m91.36 89.735a.985.985 0 1 0 .984.984.981.981 0 0 0 -.984-.984z"/><path d="m93.845 89.735a.985.985 0 1 0 .994.984.988.988 0 0 0 -.994-.984z"/><path d="m76.081 89.735a.985.985 0 1 0 .984.984.981.981 0 0 0 -.984-.984z"/><circle cx="73.596" cy="90.719" r=".984"/><path d="m49.067 58.007h1.36v5.893h-1.36z"/><path d="m49.067 66.569h1.36v5.893h-1.36z"/><path d="m49.067 75.132h1.36v5.893h-1.36z"/><path d="m49.067 83.695h1.36v5.893h-1.36z"/><path d="m49.067 92.258h1.36v5.893h-1.36z"/><path d="m49.067 100.821h1.36v5.893h-1.36z"/></g><path d="m22.181 68.7h20.217v1.504h-20.217z" fill="#43567c"/><path d="m22.181 78.994h20.217v2.404h-20.217z" fill="#43567c"/><path d="m22.181 72.614h20.217v3.969h-20.217z" fill="#43567c"/><path d="m22.181 83.323h20.217v1.504h-20.217z" fill="#43567c"/><path d="m22.181 93.617h20.217v2.404h-20.217z" fill="#43567c"/><path d="m22.181 87.237h20.217v3.969h-20.217z" fill="#43567c"/><path d="m117.961 73.066h-59.242a1 1 0 1 1 0-2h59.242a1 1 0 0 1 0 2z" fill="#43567c"/><path d="m117.961 83.361h-59.242a1 1 0 0 1 0-2h59.242a1 1 0 0 1 0 2z" fill="#43567c"/><path d="m117.961 93.655h-59.242a1 1 0 1 1 0-2h59.242a1 1 0 0 1 0 2z" fill="#43567c"/></g></svg>