<svg height="512" viewBox="0 0 128 128" width="512" xmlns="http://www.w3.org/2000/svg"><g id="icon"><path d="m125.62 68.472c-.655-2.156-1.444-4.542-2.368-7.648-2.517-8.454-1.037-28.435-.32-36.3a3 3 0 0 0 -2.987-3.266h-42.134a2.992 2.992 0 0 0 -2.989 3.228 48.154 48.154 0 0 1 -4.044 23.458c-6.333 14.022-37.094 25.556-45.237 25.556h-.083c-2.451-.006-5.319-.2-8.239-.16a26.167 26.167 0 0 0 -8.168 1.193 12.071 12.071 0 0 0 -7.276 6.387 15.281 15.281 0 0 0 -.886 2.3c-2.74 9.079 1.527 12.448 3.76 13.545a2.678 2.678 0 0 0 2.207.077l2.4-.956 1.38 2.932a2.72 2.72 0 0 0 1.341 1.328l5.71 2.612a2.752 2.752 0 0 0 2.529-.135l2.611-1.533 2.49 3.843 10.176 1.81 2.714-3.395 4.28 2.92a2.766 2.766 0 0 0 1.547.475h5.544a2.746 2.746 0 0 0 1.867-.732l2.143-1.982c11.537-8.441 30.536-5.429 30.536-5.429l2.361 5.441a2.212 2.212 0 0 0 2.041 1.341h9.837a2.213 2.213 0 0 0 1.565-.648l2.74-2.739 3.934 2.946a2.219 2.219 0 0 0 1.327.441h6.595a2.221 2.221 0 0 0 2.055-1.379l1.469-3.593 2.4 1.86a2.227 2.227 0 0 0 2.759-.032l2.926-2.367a2.216 2.216 0 0 0 .815-1.527l1.052-11.501c0-9.291-.8-13.135-2.38-18.371z" fill="#e0b289"/><path d="m77.811 21.253a2.992 2.992 0 0 0 -2.989 3.228 48.154 48.154 0 0 1 -4.044 23.458c-6.333 14.027-37.094 25.561-45.237 25.561h-.083c-2.451-.006-5.319-.2-8.239-.16l13.674 7.46s17.186-.986 37.7-14.867c19.407-13.133 19.824-44.68 19.824-44.68z" fill="#f0c191"/><path d="m33.536 99.733-26.536-10.401-5.225-8.412a12.071 12.071 0 0 1 7.276-6.391c5.2-1.809 11.614-1.039 16.407-1.033-.334 1.264-.116 3.485 5.062 4.222 7.386 1.059 17.036 1.361 19.449 7.694s-16.433 14.321-16.433 14.321z" fill="#ddb087"/><path d="m125.62 68.472-6.352 2.2a3.116 3.116 0 0 0 -1.579 1.221l-2.041 3.063a3.125 3.125 0 0 1 -1.44 1.169l-7.041 2.816a3.122 3.122 0 0 1 -2.224.037l-15.2-5.5a3.127 3.127 0 0 0 -1.776-.1l-10.709 2.499a3.124 3.124 0 0 0 -2.412 3.042 3.125 3.125 0 0 1 -2.16 2.972l-13.966 4.534a3.128 3.128 0 0 1 -2.475-.237l-4.21-2.323a3.12 3.12 0 0 0 -2.429-.251l-9.673 2.976a3.135 3.135 0 0 0 -1.4.889l-2.793 3.084a3.12 3.12 0 0 1 -2.316 1.028h-2.218a3.124 3.124 0 0 1 -2.526-1.286l-1.686-2.316a3.114 3.114 0 0 0 -2.618-1.284c-4.351.136-15.939-.181-15.569-7.44.1-1.989.18-3.536.244-4.736a12.341 12.341 0 0 0 -8.162 8.7c-2.741 9.071 1.528 12.443 3.759 13.543a2.716 2.716 0 0 0 2.205.078 2.746 2.746 0 0 1 3.5 1.376l.282.6a2.741 2.741 0 0 0 1.341 1.326l5.706 2.608a2.739 2.739 0 0 0 2.529-.13l.35-.2a2.741 2.741 0 0 1 3.69.873l.415.64a2.742 2.742 0 0 0 1.821 1.209l7.4 1.315a2.743 2.743 0 0 0 2.623-.987l.11-.137a2.743 2.743 0 0 1 3.687-.553l2.18 1.486a2.736 2.736 0 0 0 1.544.477h5.545a2.743 2.743 0 0 0 1.86-.728l2.151-1.986c11.538-8.451 30.537-5.439 30.537-5.439l2.358 5.442a2.225 2.225 0 0 0 2.041 1.34h9.83a2.223 2.223 0 0 0 1.572-.65l1.379-1.377a2.224 2.224 0 0 1 2.905-.206l2.389 1.789a2.221 2.221 0 0 0 1.334.444h6.588a2.224 2.224 0 0 0 2.059-1.382l.361-.881a2.224 2.224 0 0 1 3.421-.917l.086.067a2.225 2.225 0 0 0 2.763-.03l2.924-2.368a2.225 2.225 0 0 0 .816-1.526l1.05-11.502c0-9.291-.8-13.135-2.38-18.371z" fill="#cca27f"/><path d="m128 86.844-1.05 11.509a2.2 2.2 0 0 1 -.82 1.52l-2.92 2.371a2.227 2.227 0 0 1 -2.76.03l-.09-.07a2.227 2.227 0 0 0 -3.42.919l-.36.881a2.218 2.218 0 0 1 -2.06 1.379h-6.59a2.184 2.184 0 0 1 -1.33-.44l-2.39-1.79a2.227 2.227 0 0 0 -2.91.21l-1.38 1.371a2.2 2.2 0 0 1 -1.57.649h-9.83a2.217 2.217 0 0 1 -2.04-1.34l-2.36-5.443s-19-3.02-30.53 5.431l-2.15 1.99a2.777 2.777 0 0 1 -1.86.72h-5.55a2.722 2.722 0 0 1 -1.54-.47l-2.18-1.49a2.744 2.744 0 0 0 -3.69.549l-.11.141a2.745 2.745 0 0 1 -2.62.99l-7.4-1.321a2.706 2.706 0 0 1 -1.82-1.21l-.42-.64a2.743 2.743 0 0 0 -3.69-.87l-.35.21a2.742 2.742 0 0 1 -2.52.131l-5.71-2.611a2.712 2.712 0 0 1 -1.34-1.329l-.28-.6a2.752 2.752 0 0 0 -3.51-1.371 2.724 2.724 0 0 1 -2.2-.079c-1.96-.971-5.5-3.688-4.46-10.507a8.148 8.148 0 0 0 4.46 6.036 2.684 2.684 0 0 0 2.2.069 2.767 2.767 0 0 1 3.51 1.381l.28.6a2.652 2.652 0 0 0 1.34 1.32l5.71 2.611a2.684 2.684 0 0 0 2.52-.131l.35-.2a2.734 2.734 0 0 1 3.69.87l.42.64a2.715 2.715 0 0 0 1.82 1.209l7.4 1.321a2.767 2.767 0 0 0 2.62-.99l.11-.141a2.745 2.745 0 0 1 3.69-.55l2.18 1.48a2.725 2.725 0 0 0 1.54.481h5.55a2.735 2.735 0 0 0 1.86-.731l2.15-1.98c11.53-8.45 30.53-5.43 30.53-5.43l2.36 5.441a2.234 2.234 0 0 0 2.04 1.339h9.83a2.2 2.2 0 0 0 1.57-.649l1.38-1.381a2.225 2.225 0 0 1 2.91-.2l2.39 1.791a2.256 2.256 0 0 0 1.33.439h6.59a2.235 2.235 0 0 0 2.06-1.379l.36-.881a2.226 2.226 0 0 1 3.42-.919l.09.07a2.227 2.227 0 0 0 2.76-.03l2.92-2.371a2.2 2.2 0 0 0 .82-1.53l.99-10.879c.04 1.183.06 2.453.06 3.854z" fill="#c08e78"/><g fill="#f3cda7"><path d="m43.417 66.414a1.443 1.443 0 0 0 -.683 1.892l2.564 4.1a1.631 1.631 0 0 0 2.685-1.68l-2.564-4.1a1.445 1.445 0 0 0 -2.002-.212z"/><path d="m52.926 60.9a1.444 1.444 0 0 0 -.683 1.893l2.564 4.1a1.63 1.63 0 0 0 2.684-1.68l-2.564-4.1a1.444 1.444 0 0 0 -2.001-.213z"/><path d="m60.749 55.217a1.443 1.443 0 0 0 -.683 1.892l2.564 4.1a1.63 1.63 0 0 0 2.684-1.68l-2.564-4.1a1.444 1.444 0 0 0 -2.001-.212z"/><path d="m67.641 48.541a1.444 1.444 0 0 0 -.163 2.006l3.548 3.282a1.63 1.63 0 0 0 2.151-2.324l-3.549-3.283a1.444 1.444 0 0 0 -1.987.319z"/><path d="m71.335 39.663a1.445 1.445 0 0 0 .3 1.99l4.2 2.385a1.631 1.631 0 0 0 1.565-2.755l-4.2-2.383a1.445 1.445 0 0 0 -1.865.763z"/></g></g></svg>