<svg height="512" viewBox="0 0 128 128" width="512" xmlns="http://www.w3.org/2000/svg"><g id="icon"><path d="m60.206 42.107-56.547 58.882a6.407 6.407 0 0 0 .09 8.968l14.294 14.294a6.407 6.407 0 0 0 8.968.09l58.882-56.547z" fill="#43567c"/><path d="m79.985 73.468 21.596-2.835-20.204-27.396-24.01-16.818-2.835 21.596z" fill="#384868"/><path d="m118.341 47.877-19.1-19.1-.011-.011-19.1-19.1a4.239 4.239 0 0 0 -6 0l-16.76 16.76 22.1 22.1.011.011 22.1 22.1 16.76-16.76a4.239 4.239 0 0 0 0-6z" fill="#43567c"/><g fill="#384868"><path d="m113.949 48.258a1.63 1.63 0 0 0 -2.307 0l-12.185 12.184a1.631 1.631 0 0 0 2.307 2.307l12.185-12.184a1.631 1.631 0 0 0 0-2.307z"/><path d="m109.191 43.5a1.633 1.633 0 0 0 -2.308 0l-12.183 12.184a1.631 1.631 0 1 0 2.307 2.307l12.185-12.185a1.631 1.631 0 0 0 -.001-2.306z"/><path d="m104.432 38.741a1.63 1.63 0 0 0 -2.307 0l-12.185 12.184a1.631 1.631 0 0 0 2.307 2.307l12.185-12.184a1.631 1.631 0 0 0 0-2.307z"/><path d="m99.674 33.982a1.633 1.633 0 0 0 -2.308 0l-12.184 12.185a1.631 1.631 0 1 0 2.307 2.307l12.185-12.185a1.631 1.631 0 0 0 0-2.307z"/><path d="m94.915 29.224a1.63 1.63 0 0 0 -2.307 0l-12.185 12.184a1.631 1.631 0 0 0 2.307 2.307l12.185-12.184a1.631 1.631 0 0 0 0-2.307z"/><path d="m90.156 24.465a1.631 1.631 0 0 0 -2.307 0l-12.184 12.185a1.631 1.631 0 0 0 2.307 2.307l12.184-12.185a1.63 1.63 0 0 0 0-2.307z"/><path d="m85.4 19.707a1.63 1.63 0 0 0 -2.307 0l-12.187 12.184a1.631 1.631 0 0 0 2.307 2.309l12.187-12.186a1.631 1.631 0 0 0 0-2.307z"/><path d="m80.639 14.948a1.631 1.631 0 0 0 -2.307 0l-12.184 12.185a1.631 1.631 0 0 0 2.307 2.307l12.184-12.185a1.63 1.63 0 0 0 0-2.307z"/><path d="m109.294 19.706a1 1 0 0 1 -.707-1.706l7.513-7.512a1 1 0 0 1 1.414 1.414l-7.514 7.511a.993.993 0 0 1 -.706.293z"/><path d="m127.873 38.91h-10.625a1 1 0 0 1 0-2h10.625a1 1 0 1 1 0 2z"/><path d="m90.091 11.752a1 1 0 0 1 -1-1v-10.625a1 1 0 1 1 2 0v10.625a1 1 0 0 1 -1 1z"/><path d="m100.483 13.82a1 1 0 0 1 -.923-1.383l4.066-9.816a1 1 0 1 1 1.848.765l-4.067 9.814a1 1 0 0 1 -.924.62z"/><path d="m115.181 28.517a1 1 0 0 1 -.383-1.924l9.816-4.066a1 1 0 1 1 .766 1.847l-9.817 4.067a.99.99 0 0 1 -.382.076z"/><rect height="14.004" rx="1.401" transform="matrix(.707 -.707 .707 .707 -45.74 56.034)" width="21.84" x="33.849" y="76.229"/></g><circle cx="47.586" cy="80.333" fill="#ffc943" r="4.3"/></g></svg>