<?xml version="1.0" encoding="UTF-8"?>
<!DOCTYPE svg PUBLIC "-//W3C//DTD SVG 1.1//EN" "http://www.w3.org/Graphics/SVG/1.1/DTD/svg11.dtd">
<!-- Creator: CorelDRAW X7 -->
<svg xmlns="http://www.w3.org/2000/svg" xml:space="preserve" width="0.98098in" height="0.216862in" version="1.1" style="shape-rendering:geometricPrecision; text-rendering:geometricPrecision; image-rendering:optimizeQuality; fill-rule:evenodd; clip-rule:evenodd"
viewBox="0 0 34234 7568"
 xmlns:xlink="http://www.w3.org/1999/xlink">
 <defs>
  <style type="text/css">
   <![CDATA[
    .fil1 {fill:#191D32}
    .fil4 {fill:#1C2037}
    .fil6 {fill:#262C4C}
    .fil3 {fill:#28DF99}
    .fil0 {fill:#4F5D73}
    .fil7 {fill:#66A293}
    .fil5 {fill:#D4D3D3}
    .fil2 {fill:white}
    .fil8 {fill:#4F5D73;fill-rule:nonzero}
   ]]>
  </style>
 </defs>
 <g id="Layer_x0020_1">
  <metadata id="CorelCorpID_0Corel-Layer"/>
  <path class="fil0" d="M29 2457c-73,189 -290,4418 3586,5038 3875,620 3683,-2899 3665,-3344 -25,-589 87,-3988 -3827,-4146 -2826,-113 -3217,1573 -3424,2452z"/>
  <path class="fil1" d="M4688 3290c-14,50 -69,151 -105,190l-86 -37 -15 -3c-14,70 -764,1420 -879,1638 -45,85 -120,149 -235,102 -65,-27 -263,-330 -312,-401l-601 -853c-49,-70 -101,-140 -151,-213 -50,-73 -95,-146 -152,-209 -77,21 -191,117 -265,166 -93,62 -173,116 -260,173 -223,149 -422,344 -558,212 -11,9 -45,20 -49,91 -6,105 72,194 192,178 101,-14 820,-554 940,-598l1096 1546c48,68 92,167 227,140 122,-24 209,-274 309,-447 172,-299 358,-678 531,-979 45,-78 93,-163 134,-243 44,-87 102,-174 132,-256 169,24 320,59 451,-54 -16,-33 -86,-125 -117,-154l-227 11z"/>
  <path class="fil2" d="M1069 4055c136,132 335,-63 558,-212 87,-57 167,-111 260,-173 74,-49 188,-145 265,-166 57,63 102,136 152,209 50,73 102,143 151,213l601 853c49,71 247,374 312,401 115,47 190,-17 235,-102 115,-218 865,-1568 879,-1638 -15,-40 -82,-85 -119,-136l-82 -172c-1,-5 -3,-6 -5,-9l-856 1577 -520 -730c-170,-243 -353,-488 -520,-738 -140,-210 -214,-154 -392,-35l-755 503c-121,81 -307,173 -164,355z"/>
  <path class="fil3" d="M4293 2954l32 74c42,47 64,90 111,133 53,49 81,59 147,98l105 31 227 -11c3,-2 8,-9 9,-6l123 -70c82,-64 166,-146 190,-284 75,-144 -23,-341 -90,-427 -183,-235 -572,-247 -767,8 -107,140 -109,252 -87,454z"/>
  <path class="fil2" d="M5143 3332c35,72 942,1239 966,1260 64,59 167,56 230,-5 125,-164 -21,-264 -155,-448l-310 -402c-210,-265 -403,-531 -614,-793 -26,154 2,288 -117,388z"/>
  <path class="fil4" d="M5048 3433l37 58c296,404 661,846 961,1248 50,68 118,163 254,100 88,-41 113,-162 66,-227 -23,-32 4,-2 -27,-25 -63,61 -166,64 -230,5 -24,-21 -931,-1188 -966,-1260l-15 2c-10,51 -41,61 -80,99z"/>
  <path class="fil5" d="M4293 3097l-17 26c2,3 4,4 5,9l82 172c37,51 104,96 119,136l15 3c25,-75 65,-115 86,-184 -66,-39 -94,-49 -147,-98 -47,-43 -69,-86 -111,-133l-32 69z"/>
  <path class="fil5" d="M5047 3203c18,57 -4,-1 14,31 3,5 20,31 23,35 27,36 26,24 44,65l15 -2c119,-100 91,-234 117,-388 3,-33 10,-25 -23,-25 -24,138 -108,220 -190,284z"/>
  <path class="fil6" d="M4915 3279c31,29 101,121 117,154l16 0c39,-38 70,-48 80,-99 -18,-41 -17,-29 -44,-65 -3,-4 -20,-30 -23,-35 -18,-32 4,26 -14,-31l-123 70c-1,-3 -6,4 -9,6z"/>
  <path class="fil6" d="M4497 3443l86 37c36,-39 91,-140 105,-190l-105 -31c-21,69 -61,109 -86,184z"/>
  <path class="fil7" d="M4293 3097l32 -69 -32 -74c-22,38 -27,107 0,143z"/>
  <path class="fil8" d="M8881 6144c-36,0 -64,-11 -86,-34 -21,-23 -32,-53 -32,-88l0 -3482c0,-39 11,-70 32,-93 22,-23 50,-35 86,-35l1348 0c402,0 717,97 947,291 229,194 344,475 344,845 0,369 -115,650 -344,842 -230,192 -545,288 -947,288l-959 0 0 1344c0,35 -12,65 -35,88 -23,23 -52,34 -88,34l-266 0zm1322 -1898c537,0 805,-232 805,-698 0,-228 -67,-402 -200,-523 -133,-121 -335,-181 -605,-181l-933 0 0 1402 933 0z"/>
  <path id="1" class="fil8" d="M12321 6144c-36,0 -65,-11 -88,-34 -23,-23 -35,-53 -35,-88l0 -2522c0,-36 12,-66 35,-91 23,-25 52,-37 88,-37l224 0c39,0 70,11 93,35 23,23 35,54 35,93l0 234c145,-241 392,-362 741,-362l208 0c39,0 69,11 90,32 22,21 32,51 32,91l0 197c0,35 -10,65 -32,88 -21,23 -51,34 -90,34l-304 0c-196,0 -349,57 -461,171 -112,114 -168,268 -168,464l0 1573c0,35 -13,65 -38,88 -25,23 -55,34 -90,34l-240 0z"/>
  <path id="2" class="fil8" d="M14369 2850c-35,0 -64,-12 -87,-35 -24,-23 -35,-53 -35,-88l0 -277c0,-36 11,-66 35,-91 23,-25 52,-37 87,-37l315 0c36,0 66,12 91,37 25,25 37,55 37,91l0 277c0,35 -12,65 -37,88 -25,23 -55,35 -91,35l-315 0zm43 3294c-35,0 -65,-11 -88,-34 -23,-23 -35,-53 -35,-88l0 -2527c0,-36 12,-65 35,-88 23,-24 53,-35 88,-35l235 0c35,0 65,11 88,35 23,23 34,52 34,88l0 2527c0,35 -11,65 -34,88 -23,23 -53,34 -88,34l-235 0z"/>
  <path id="3" class="fil8" d="M16765 6198c-381,0 -677,-108 -891,-323 -213,-215 -325,-516 -335,-904l-6 -213 6 -213c10,-388 122,-689 335,-904 214,-215 510,-322 891,-322 256,0 472,45 648,136 175,90 307,203 394,338 87,135 134,270 141,405 4,32 -8,61 -34,86 -27,24 -56,37 -88,37l-235 0c-35,0 -62,-8 -80,-24 -18,-16 -35,-45 -53,-88 -64,-174 -152,-298 -264,-371 -112,-72 -253,-109 -424,-109 -224,0 -402,69 -533,208 -132,139 -203,350 -213,635l-6 186 6 187c10,284 81,496 213,634 131,139 309,208 533,208 174,0 316,-36 427,-109 110,-73 197,-197 261,-371 18,-42 35,-72 53,-88 18,-16 45,-24 80,-24l235 0c32,0 61,13 88,38 26,24 38,53 34,85 -7,131 -54,265 -141,400 -87,135 -219,249 -394,341 -176,92 -392,139 -648,139z"/>
  <path id="4" class="fil8" d="M19773 6198c-363,0 -652,-113 -869,-339 -217,-226 -336,-534 -357,-925l-6 -181 6 -176c21,-384 140,-690 357,-917 217,-228 506,-341 869,-341 391,0 694,124 909,373 215,249 323,586 323,1013l0 96c0,35 -12,65 -35,88 -23,23 -52,34 -88,34l-1850 0 0 48c11,231 82,429 213,592 132,164 306,245 523,245 167,0 303,-32 408,-98 104,-66 184,-134 237,-206 32,-42 57,-68 75,-77 17,-9 47,-13 90,-13l235 0c32,0 59,9 82,27 24,17 35,40 35,69 0,78 -48,172 -144,282 -96,111 -232,206 -408,286 -176,80 -377,120 -605,120zm747 -1637l0 -16c0,-249 -68,-452 -203,-608 -135,-156 -316,-235 -544,-235 -231,0 -412,79 -544,235 -131,156 -197,359 -197,608l0 16 1488 0z"/>
  <path id="5" class="fil8" d="M22792 6144c-551,0 -826,-311 -826,-933l0 -1429 -421 0c-36,0 -64,-10 -86,-31 -21,-22 -32,-50 -32,-86l0 -170c0,-36 11,-65 32,-88 22,-24 50,-35 86,-35l421 0 0 -890c0,-36 10,-65 32,-88 21,-23 50,-35 85,-35l235 0c35,0 65,12 88,35 23,23 34,52 34,88l0 890 661 0c36,0 65,11 88,35 24,23 35,52 35,88l0 170c0,36 -11,64 -35,86 -23,21 -52,31 -88,31l-661 0 0 1392c0,181 30,318 88,410 59,93 159,139 302,139l325 0c35,0 64,12 85,35 21,23 32,52 32,88l0 176c0,35 -11,65 -32,88 -21,23 -50,34 -85,34l-363 0z"/>
  <path id="6" class="fil8" d="M24004 6144c-36,0 -65,-11 -88,-34 -23,-23 -35,-53 -35,-88l0 -2522c0,-36 12,-66 35,-91 23,-25 52,-37 88,-37l224 0c39,0 70,11 93,35 23,23 35,54 35,93l0 234c145,-241 392,-362 741,-362l208 0c39,0 69,11 90,32 22,21 32,51 32,91l0 197c0,35 -10,65 -32,88 -21,23 -51,34 -90,34l-304 0c-196,0 -349,57 -461,171 -112,114 -168,268 -168,464l0 1573c0,35 -13,65 -38,88 -25,23 -55,34 -90,34l-240 0z"/>
  <path id="7" class="fil8" d="M26698 6198c-175,0 -335,-36 -483,-107 -147,-71 -265,-168 -352,-291 -87,-122 -130,-258 -130,-407 0,-235 95,-427 287,-576 192,-150 454,-249 784,-299l800 -112 0 -154c0,-366 -212,-550 -635,-550 -163,0 -295,33 -394,99 -100,66 -172,143 -219,232 -14,36 -29,60 -45,72 -16,13 -38,19 -67,19l-208 0c-32,0 -59,-12 -82,-35 -23,-23 -35,-51 -35,-83 0,-81 38,-176 115,-285 76,-108 194,-202 354,-282 160,-80 356,-120 587,-120 398,0 683,92 855,277 173,185 259,416 259,693l0 1733c0,35 -12,65 -35,88 -23,23 -52,34 -88,34l-234 0c-36,0 -64,-11 -85,-34 -22,-23 -32,-53 -32,-88l0 -235c-79,117 -192,215 -342,293 -149,78 -341,118 -575,118zm106 -390c235,0 427,-76 576,-229 149,-153 224,-375 224,-666l0 -149 -624 90c-256,36 -450,96 -581,181 -132,86 -197,192 -197,320 0,146 59,258 178,336 119,78 261,117 424,117z"/>
  <path id="8" class="fil8" d="M30058 6198c-380,0 -677,-108 -891,-323 -213,-215 -325,-516 -335,-904l-6 -213 6 -213c10,-388 122,-689 335,-904 214,-215 511,-322 891,-322 256,0 472,45 648,136 176,90 307,203 394,338 87,135 134,270 141,405 4,32 -8,61 -34,86 -27,24 -56,37 -88,37l-235 0c-35,0 -62,-8 -80,-24 -18,-16 -35,-45 -53,-88 -64,-174 -152,-298 -264,-371 -112,-72 -253,-109 -424,-109 -224,0 -402,69 -533,208 -132,139 -203,350 -213,635l-6 186 6 187c10,284 81,496 213,634 131,139 309,208 533,208 174,0 316,-36 427,-109 110,-73 197,-197 261,-371 18,-42 35,-72 53,-88 18,-16 45,-24 80,-24l235 0c32,0 61,13 88,38 26,24 38,53 34,85 -7,131 -54,265 -141,400 -87,135 -218,249 -394,341 -176,92 -392,139 -648,139z"/>
  <path id="9" class="fil8" d="M32096 6144c-36,0 -65,-11 -88,-34 -23,-23 -35,-53 -35,-88l0 -3540c0,-40 12,-70 35,-91 23,-21 52,-32 88,-32l229 0c36,0 65,12 88,35 23,23 35,52 35,88l0 1860 1066 -879c53,-39 91,-64 112,-75 21,-11 55,-16 101,-16l267 0c32,0 58,10 77,29 20,20 29,47 29,83 0,32 -19,66 -58,101l-1248 1024 1381 1322c39,39 59,73 59,101 0,32 -10,59 -30,80 -19,22 -45,32 -77,32l-261 0c-53,0 -92,-5 -115,-16 -23,-10 -56,-35 -98,-74l-1205 -1141 0 1109c0,35 -12,65 -35,88 -23,23 -52,34 -88,34l-229 0z"/>
 </g>
</svg>
